<?xml version="1.0" encoding="UTF-8"?>
<svg width="670px" height="420px" viewBox="0 0 670 420" version="1.1" xmlns="http://www.w3.org/2000/svg" xmlns:xlink="http://www.w3.org/1999/xlink">
    <title>Artboard</title>
    <g id="Artboard" stroke="none" stroke-width="1" fill="none" fill-rule="evenodd">
        <path d="M648.986527,7 C655.613944,7 660.986527,12.372583 660.986527,19 L660.986639,258.601963 C666.322332,261.195914 670,266.668474 670,273 L670,372 C670,378.331526 666.322332,383.804086 660.986639,386.398037 L660.986527,395 C660.986527,401.627417 655.613944,407 648.986527,407 L575.279936,407.000444 C574.867806,411.927855 571.412866,416.285525 566.357115,417.608893 C565.365091,417.86856 564.343875,418 563.31843,418 L108.512622,418 C102.222118,418 97.0621079,413.159775 96.5537347,407.000467 L22.0134731,407 C15.3860561,407 10.0134731,401.627417 10.0134731,395 L10.0133613,387.398037 C4.67766807,384.804086 1,379.331526 1,373 L1,274 C1,267.668474 4.67766807,262.195914 10.0133613,259.601963 L10.0134731,19 C10.0134731,12.372583 15.3860561,7 22.0134731,7 L648.986527,7 Z M163.718,374.767 L163.693316,374.795092 C161.508938,377.264624 160.183347,380.509496 160.183347,384.063549 C160.183347,391.79884 166.462702,398.069533 174.208679,398.069533 C178.86529,398.069533 182.991864,395.803308 185.542785,392.315034 L185.719,392.066 L185.537198,392.319196 C182.983066,395.765574 178.882354,398 174.258982,398 C166.515421,398 160.238024,391.731986 160.238024,384 C160.238024,380.592761 161.457021,377.469809 163.483304,375.042237 L163.718,374.767 Z M499.448,374.976 L499.431565,374.95531 C501.501628,377.395041 502.75,380.551952 502.75,384 C502.75,391.731986 496.472603,398 488.729042,398 C483.950653,398 479.73056,395.613225 477.199283,391.968507 L477.054,391.755 L477.194168,391.964497 C479.720687,395.650588 483.965888,398.069533 488.776845,398.069533 C496.522822,398.069533 502.802178,391.79884 502.802178,384.063549 C502.802178,380.696283 501.612261,377.606554 499.629432,375.190817 L499.448,374.976 Z M174.258982,374 C168.727867,374 164.244012,378.477153 164.244012,384 C164.244012,389.522847 168.727867,394 174.258982,394 C179.790097,394 184.273952,389.522847 184.273952,384 C184.273952,378.477153 179.790097,374 174.258982,374 Z M488.729042,374 C483.197927,374 478.714072,378.477153 478.714072,384 C478.714072,389.522847 483.197927,394 488.729042,394 C494.260157,394 498.744012,389.522847 498.744012,384 C498.744012,378.477153 494.260157,374 488.729042,374 Z M438.004,371.403 L437.988924,371.373007 C439.052309,373.346402 439.655689,375.602843 439.655689,378 C439.655689,385.731986 433.378292,392 425.634731,392 C419.782636,392 414.767924,388.420098 412.667267,383.333863 L412.567,383.084 L412.573361,383.101907 C414.600029,388.346464 419.696354,392.066968 425.66285,392.066968 C433.408827,392.066968 439.688182,385.796275 439.688182,378.060984 C439.688182,375.790257 439.147065,373.645741 438.186577,371.749013 L438.004,371.403 Z M225.303,370.837 L225.26184,370.907962 C224.014032,373.001597 223.297342,375.44771 223.297342,378.060984 C223.297342,385.796275 229.576697,392.066968 237.322674,392.066968 C243.159096,392.066968 248.162874,388.506916 250.275261,383.442719 C248.148225,388.471194 243.163474,392 237.353293,392 C229.609732,392 223.332335,385.731986 223.332335,378 C223.332335,375.525068 223.975503,373.200131 225.10405,371.182741 L225.303,370.837 Z M237.353293,368 C231.822178,368 227.338323,372.477153 227.338323,378 C227.338323,383.522847 231.822178,388 237.353293,388 C242.884409,388 247.368263,383.522847 247.368263,378 C247.368263,372.477153 242.884409,368 237.353293,368 Z M425.634731,368 C420.103615,368 415.61976,372.477153 415.61976,378 C415.61976,383.522847 420.103615,388 425.634731,388 C431.165846,388 435.649701,383.522847 435.649701,378 C435.649701,372.477153 431.165846,368 425.634731,368 Z M240.94868,131.575179 L127.159824,131.575179 L127.159824,245.360382 L240.94868,245.360382 L240.94868,131.575179 Z M546,131 L432,131 L432,245 L546,245 L546,131 Z M410.650184,150.963951 L261.351625,150.963951 C257.016711,150.963951 253.487083,154.411789 253.355432,158.714772 L253.351625,158.963951 L253.351625,225.99943 C253.351625,230.334344 256.799463,233.863973 261.102446,233.995623 L261.127593,233.995815 C256.823796,233.857947 253.377246,230.330864 253.377246,226 L253.377246,159 C253.377246,154.581722 256.964329,151 261.389222,151 L410.612275,151 C415.037168,151 418.624251,154.581722 418.624251,159 L418.624251,226 C418.624251,230.330881 415.177675,233.857973 410.873856,233.995817 L410.650184,233.99943 C414.985098,233.99943 418.514727,230.551592 418.646377,226.248609 L418.650184,225.99943 L418.650184,158.963951 C418.650184,154.545673 415.068462,150.963951 410.650184,150.963951 Z M410.612275,155 L261.389222,155 C259.243819,155 257.492318,156.683968 257.388136,158.80036 L257.383234,159 L257.383234,226 C257.383234,228.142195 259.069723,229.891079 261.189282,229.995105 L261.389222,230 L410.612275,230 C412.757678,230 414.509179,228.316032 414.613361,226.19964 L414.618263,226 L414.618263,159 C414.618263,156.857805 412.931774,155.108921 410.812215,155.004895 L410.612275,155 Z" id="Tape-Shadow" fill-opacity="0.1" fill="#000000"></path>

        <g id="Tape2" transform="translate(1.000000, 1.000000)">
            <g id="Tape-Shell">
                <path d="M646,5 C650.418278,5 654,8.581722 654,13 L654.000932,256.378292 C659.176141,257.710745 663,262.408817 663,268 L663,364 C663,369.591183 659.176141,374.289255 654.000932,375.621708 L654,387 C654,391.418278 650.418278,395 646,395 L568.019,395 L568.533452,397.071231 C569.598682,401.359175 566.986155,405.69878 562.698211,406.76401 C562.067265,406.920752 561.419566,407 560.769442,407 L108.230558,407 C103.81228,407 100.230558,403.418278 100.230558,399 C100.230558,398.349876 100.309806,397.702177 100.466548,397.071231 L100.98,395 L22,395 C17.581722,395 14,391.418278 14,387 L14.0000718,375.621966 C8.82435371,374.289863 5,369.591544 5,364 L5,268 C5,262.408456 8.82435371,257.710137 14.0000718,256.378034 L14,13 C14,8.581722 17.581722,5 22,5 L646,5 Z M487,363 C479.268014,363 473,369.268014 473,377 C473,384.731986 479.268014,391 487,391 C494.731986,391 501,384.731986 501,377 C501,369.268014 494.731986,363 487,363 Z M173,363 C165.268014,363 159,369.268014 159,377 C159,384.731986 165.268014,391 173,391 C180.731986,391 187,384.731986 187,377 C187,369.268014 180.731986,363 173,363 Z M236,357 C228.268014,357 222,363.268014 222,371 C222,378.731986 228.268014,385 236,385 C243.731986,385 250,378.731986 250,371 C250,363.268014 243.731986,357 236,357 Z M424,357 C416.268014,357 410,363.268014 410,371 C410,378.731986 416.268014,385 424,385 C431.731986,385 438,378.731986 438,371 C438,363.268014 431.731986,357 424,357 Z M197,141 C172.147186,141 152,161.147186 152,186 C152,210.852814 172.147186,231 197,231 C221.852814,231 242,210.852814 242,186 C242,161.147186 221.852814,141 197,141 Z M472,141 C447.147186,141 427,161.147186 427,186 C427,210.852814 447.147186,231 472,231 C496.852814,231 517,210.852814 517,186 C517,161.147186 496.852814,141 472,141 Z M409,144 L260,144 C255.665086,144 252.135457,147.447838 252.003807,151.750821 L252,152 L252,219 C252,223.334914 255.447838,226.864543 259.750821,226.996193 L260,227 L409,227 C413.334914,227 416.864543,223.552162 416.996193,219.249179 L417,219 L417,152 C417,147.581722 413.418278,144 409,144 Z" id="Body-Copy" fill="#FF6C24"></path>
                <g id="Window-Copy" transform="translate(252.000000, 144.000000)">
                    <rect id="Rectangle" fill-opacity="0.1" fill="#D7FEFF" x="0" y="0" width="165" height="83" rx="8"></rect>
                    <polygon id="Rectangle" fill="#FFFFFF" opacity="0.197172619" points="0 66 165 66 165 75 0 75"></polygon>
                    <polygon id="Rectangle-Copy-5" fill="#FFFFFF" opacity="0.197172619" points="0 13 165 13 165 26 0 26"></polygon>
                </g>
                <g id="Screws-Copy" transform="translate(19.000000, 10.000000)" fill="#941313">
                    <path d="M13.2119457,361.711946 C18.0415633,363.761997 20.2948471,369.33907 18.2447961,374.168688 C16.1947451,378.998305 10.6176718,381.251589 5.78805428,379.201538 C0.958436749,377.151487 -1.29484712,371.574414 0.755203892,366.744796 C2.80525491,361.915179 8.38232819,359.661895 13.2119457,361.711946 Z M622.149658,361.101068 C627.316654,362.012149 630.766754,366.939404 629.855674,372.1064 C628.944593,377.273395 624.017338,380.723496 618.850342,379.812415 C613.683346,378.901335 610.233246,373.97408 611.144326,368.807084 C612.055407,363.640088 616.982662,360.189987 622.149658,361.101068 Z M2.5962136,367.526258 C0.977752273,371.339114 2.75666059,375.742067 6.56951654,377.360528 C10.3823725,378.97899 14.7853251,377.200081 16.4037864,373.387225 C18.0222477,369.574369 16.2433394,365.171417 12.4304835,363.552955 C8.61762752,361.934494 4.21467493,363.713402 2.5962136,367.526258 Z M613.113942,369.15438 C612.394668,373.233588 615.118431,377.123526 619.197639,377.8428 C623.276846,378.562074 627.166784,375.83831 627.886058,371.759103 C628.605332,367.679896 625.881569,363.789958 621.802361,363.070684 C617.723154,362.351409 613.833216,365.075173 613.113942,369.15438 Z M5.28820686,367.582581 L14.4932554,371.489893 C15.0016362,371.705687 15.238824,372.292748 15.0230291,372.801129 C14.8072343,373.309509 14.2201739,373.546697 13.7117931,373.330902 L4.5067446,369.423591 C3.99836381,369.207796 3.76117604,368.620736 3.97697088,368.112355 C4.19276572,367.603974 4.77982607,367.366786 5.28820686,367.582581 Z M615.749609,368.603693 L625.597687,370.340175 C626.141581,370.436078 626.50475,370.954737 626.408847,371.498631 C626.312943,372.042525 625.794285,372.405694 625.250391,372.30979 L615.402313,370.573309 C614.858419,370.477405 614.49525,369.958747 614.591153,369.414853 C614.687057,368.870958 615.205715,368.50779 615.749609,368.603693 Z M320.25,333.272759 C324.79378,335.896111 326.350594,341.70622 323.727241,346.25 C321.103889,350.79378 315.29378,352.350594 310.75,349.727241 C306.20622,347.103889 304.649406,341.29378 307.272759,336.75 C309.896111,332.20622 315.70622,330.649406 320.25,333.272759 Z M309.004809,337.75 C306.933742,341.337195 308.162805,345.924123 311.75,347.995191 C315.337195,350.066258 319.924123,348.837195 321.995191,345.25 C324.066258,341.662805 322.837195,337.075877 319.25,335.004809 C315.662805,332.933742 311.075877,334.162805 309.004809,337.75 Z M318.5,336.303848 C318.978293,336.57999 319.142168,337.19158 318.866025,337.669873 L313.866025,346.330127 C313.589883,346.80842 312.978293,346.972295 312.5,346.696152 C312.021707,346.42001 311.857832,345.80842 312.133975,345.330127 L317.133975,336.669873 C317.410117,336.19158 318.021707,336.027705 318.5,336.303848 Z M624.211946,0.755203892 C629.041563,2.80525491 631.294847,8.38232819 629.244796,13.2119457 C627.194745,18.0415633 621.617672,20.2948471 616.788054,18.2447961 C611.958437,16.1947451 609.705153,10.6176718 611.755204,5.78805428 C613.805255,0.958436749 619.382328,-1.29484712 624.211946,0.755203892 Z M9.5,8.67361738e-19 C14.7467051,8.67361738e-19 19,4.25329488 19,9.5 C19,14.7467051 14.7467051,19 9.5,19 C4.25329488,19 -9.09494702e-13,14.7467051 -9.09494702e-13,9.5 C-9.09494702e-13,4.25329488 4.25329488,8.67361738e-19 9.5,8.67361738e-19 Z M613.596214,6.56951654 C611.977752,10.3823725 613.756661,14.7853251 617.569517,16.4037864 C621.382372,18.0222477 625.785325,16.2433394 627.403786,12.4304835 C629.022248,8.61762752 627.243339,4.21467493 623.430483,2.5962136 C619.617628,0.977752273 615.214675,2.75666059 613.596214,6.56951654 Z M9.5,2 C5.35786438,2 2,5.35786438 2,9.5 C2,13.6421356 5.35786438,17 9.5,17 C13.6421356,17 17,13.6421356 17,9.5 C17,5.35786438 13.6421356,2 9.5,2 Z M616.288207,6.6258395 L625.493255,10.5331508 C626.001636,10.7489456 626.238824,11.336006 626.023029,11.8443868 C625.807234,12.3527676 625.220174,12.5899553 624.711793,12.3741605 L615.506745,8.46684921 C614.998364,8.25105437 614.761176,7.66399402 614.976971,7.15561323 C615.192766,6.64723244 615.779826,6.41004466 616.288207,6.6258395 Z M14.5,8.5 C15.0522847,8.5 15.5,8.94771525 15.5,9.5 C15.5,10.0522847 15.0522847,10.5 14.5,10.5 L4.5,10.5 C3.94771525,10.5 3.5,10.0522847 3.5,9.5 C3.5,8.94771525 3.94771525,8.5 4.5,8.5 L14.5,8.5 Z" id="Combined-Shape"></path>
                </g>
                <g id="HIghlights" transform="translate(48.000000, 10.000000)" fill="#FFFFFF" opacity="0.170247396">
                    <rect id="Rectangle-Copy-9" x="78" y="323" width="416" height="4" rx="2"></rect>
                    <rect id="Rectangle-Copy-10" x="0" y="0" width="573" height="4" rx="2"></rect>
                </g>
                <path d="M647,0 C653.627417,-1.21743675e-15 659,5.372583 659,12 L659.00058,251.608749 C664.328737,254.20545 668,259.67399 668,266 L668,365 C668,371.32601 664.328737,376.79455 659.00058,379.391251 L659,388 C659,394.627417 653.627417,400 647,400 L573.422014,400.000832 C573.009612,404.929731 569.552575,409.288132 564.494974,410.610005 C563.504278,410.868937 562.484515,411 561.460541,411 L107.369317,411 C101.078812,411 95.9188023,406.159775 95.4104292,400.000467 L21,400 C14.372583,400 9,394.627417 9,388 L9.00041542,380.391737 C3.6717203,377.795231 7.7476099e-16,372.326404 0,366 L0,267 C-7.7476099e-16,260.673596 3.6717203,255.204769 9.00041542,252.608263 L9,12 C9,5.372583 14.372583,1.21743675e-15 21,0 L647,0 Z M544.870282,327 L124.129718,327 C120.54186,327 117.404594,329.386451 116.432917,332.818275 L116.365708,333.071231 L100.667,396.261 L100.466548,397.071231 C100.309806,397.702177 100.230558,398.349876 100.230558,399 L100.235837,399.293372 L100.239782,399.387578 L100.239,399.388 L100.253345,399.608379 L100.255,399.633 L100.257,399.657 L100.270593,399.805364 C100.277134,399.870796 100.284463,399.935997 100.292571,400.000955 L100.323885,400.225815 C100.90151,403.982273 104.092144,406.877202 107.981379,406.996193 L108.230558,407 L560.769442,407 C561.419566,407 562.067265,406.920752 562.698211,406.76401 C565.934395,405.960063 568.216266,403.291039 568.683046,400.186752 L568.708817,400.000386 C568.737535,399.772889 568.756518,399.543232 568.765433,399.311967 L568.766343,399.287382 L568.768,399.192 L568.77,398.971 L568.769816,398.851286 L568.767633,398.763921 L568.765,398.725 L568.762,398.648 L568.756365,398.518675 L568.751,398.456 L568.736,398.276 L568.726,398.171 L568.704574,397.977452 C568.683349,397.814337 568.656983,397.650956 568.625367,397.487495 L568.605867,397.3899 L568.533452,397.071231 L568.332,396.261 L552.634292,333.071231 C551.748175,329.504283 548.545648,327 544.870282,327 Z M646,5 L22,5 C17.6650857,5 14.1354571,8.44783777 14.0038068,12.7508207 L14,13 L14,387 C14,391.334914 17.4478378,394.864543 21.7508207,394.996193 L22,395 L95.999,395 L111.727607,332.089572 C113.063108,326.747568 117.862905,323 123.369317,323 L544.733268,323 C550.192005,323 554.962925,326.684237 556.343273,331.965567 L572.818,395 L646,395 C650.334914,395 653.864543,391.552162 653.996193,387.249179 L654,387 L654,13 C654,8.581722 650.418278,5 646,5 Z M173,363 C180.731986,363 187,369.268014 187,377 C187,384.731986 180.731986,391 173,391 C165.268014,391 159,384.731986 159,377 C159,369.268014 165.268014,363 173,363 Z M487,363 C494.731986,363 501,369.268014 501,377 C501,384.731986 494.731986,391 487,391 C479.268014,391 473,384.731986 473,377 C473,369.268014 479.268014,363 487,363 Z M173,367 C167.477153,367 163,371.477153 163,377 C163,382.522847 167.477153,387 173,387 C178.522847,387 183,382.522847 183,377 C183,371.477153 178.522847,367 173,367 Z M487,367 C481.477153,367 477,371.477153 477,377 C477,382.522847 481.477153,387 487,387 C492.522847,387 497,382.522847 497,377 C497,371.477153 492.522847,367 487,367 Z M236,357 C243.731986,357 250,363.268014 250,371 C250,378.731986 243.731986,385 236,385 C228.268014,385 222,378.731986 222,371 C222,363.268014 228.268014,357 236,357 Z M424,357 C431.731986,357 438,363.268014 438,371 C438,378.731986 431.731986,385 424,385 C416.268014,385 410,378.731986 410,371 C410,363.268014 416.268014,357 424,357 Z M236,361 C230.477153,361 226,365.477153 226,371 C226,376.522847 230.477153,381 236,381 C241.522847,381 246,376.522847 246,371 C246,365.477153 241.522847,361 236,361 Z M424,361 C418.477153,361 414,365.477153 414,371 C414,376.522847 418.477153,381 424,381 C429.522847,381 434,376.522847 434,371 C434,365.477153 429.522847,361 424,361 Z M9,259.054 L8.999,259.056 L8.97473686,259.078249 L8.928,259.12 L8.843,259.198 L8.72964408,259.305072 C8.58254131,259.44505 8.43941875,259.588268 8.2999699,259.73501 C8.26063654,259.776397 8.2212849,259.818401 8.18223361,259.860686 C8.1505143,259.895036 8.11935658,259.929168 8.0883942,259.96348 C8.05422393,260.001344 8.02001875,260.039738 7.98605776,260.078351 C7.70640094,260.396291 7.44299727,260.729575 7.19754298,261.07646 C7.1818122,261.09869 7.16591608,261.121318 7.15009632,261.144004 C7.10858416,261.203531 7.06756781,261.263498 7.02708482,261.323853 C7.00142995,261.362101 6.97602872,261.400445 6.95084274,261.438942 C6.90860567,261.5035 6.86689439,261.568617 6.82579887,261.63416 C6.81217352,261.655889 6.79845005,261.677934 6.78479624,261.700026 C6.74270595,261.768134 6.70146061,261.836384 6.66088029,261.905075 C6.64335164,261.934745 6.6259291,261.964528 6.60863161,261.994393 C6.45697699,262.256216 6.31478681,262.524604 6.18271371,262.798784 L6.10828534,262.956219 C6.03205413,263.120566 5.95950888,263.286744 5.89066747,263.45483 L5.84228137,263.574825 L5.79080108,263.7068 L5.73635521,263.851676 L5.72807115,263.874232 C5.65521533,264.073223 5.58747859,264.274682 5.52502039,264.478449 L5.50567665,264.542193 L5.44560921,264.748911 C5.43257777,264.795325 5.41992144,264.841469 5.40753457,264.887723 C5.39245587,264.944011 5.37753984,265.001399 5.36303957,265.058952 C5.34514976,265.129967 5.32796198,265.200936 5.31140821,265.272149 C5.25561087,265.512173 5.20699696,265.755074 5.16583279,266.000501 C5.14535552,266.122566 5.12666875,266.245639 5.10986614,266.369312 C5.08597737,266.545154 5.06590863,266.722086 5.04972945,266.900142 L5.04104884,267.000302 C5.02292283,267.220107 5.0107209,267.441543 5.00460029,267.664481 L5,268 L5,364 C5,364.225367 5.00621264,364.449283 5.018476,364.671587 L5.02658361,364.805148 C5.03088072,364.870059 5.03574117,364.9354 5.04112276,365.000594 L5.05371237,365.142837 C5.06050646,365.214747 5.067928,365.286408 5.07597734,365.35788 L5.09105124,365.485579 C5.09693938,365.533271 5.10311912,365.580963 5.10957802,365.628566 C5.13664721,365.828012 5.16853036,366.025441 5.20516646,366.221197 C5.23933072,366.403811 5.27781197,366.585734 5.32036249,366.766086 C5.33111367,366.811658 5.34216864,366.857307 5.35348378,366.902853 C5.37101439,366.973411 5.38909274,367.043435 5.40778428,367.113209 C5.41881944,367.154405 5.43012922,367.195732 5.44165376,367.236969 C5.52586887,367.538291 5.62149265,367.83467 5.72807115,368.125768 L5.74865467,368.181557 C5.7608947,368.214478 5.77327508,368.247331 5.78579509,368.280115 L5.85540341,368.458091 C5.86688887,368.486777 5.87849154,368.515432 5.89020144,368.544032 C5.92205157,368.621819 5.95463514,368.699059 5.98799907,368.775882 C6.0001458,368.803852 6.01241673,368.831812 6.02479096,368.859717 L6.1324793,369.095612 L6.15411112,369.141415 C6.22244593,369.285309 6.29351092,369.427534 6.36728225,369.568117 C6.41336324,369.655934 6.46059497,369.743281 6.50886992,369.829967 C6.54232745,369.890043 6.57618911,369.949635 6.61054341,370.008906 L6.67232743,370.114261 C6.70784711,370.174133 6.74411207,370.234059 6.7808835,370.293638 C6.79908697,370.323132 6.81735261,370.352443 6.83574082,370.381669 C6.87603346,370.445707 6.91680477,370.50917 6.95815388,370.57222 C6.97967692,370.605038 7.00131034,370.637676 7.0230986,370.670201 C7.04549256,370.70363 7.06806945,370.736969 7.09080903,370.770188 C7.12686548,370.82286 7.16329658,370.875181 7.20013138,370.927197 C7.31576871,371.09048 7.43515472,371.250455 7.55836386,371.407283 C7.59283582,371.451156 7.62716041,371.494231 7.66177369,371.537062 L7.78172085,371.683131 C7.80576234,371.711947 7.8301959,371.740953 7.85476392,371.769842 C7.88492754,371.805307 7.91493234,371.840179 7.9451333,371.874876 C7.99255108,371.929351 8.04032857,371.983257 8.08858047,372.036726 C8.1211939,372.072868 8.15421283,372.109014 8.1874489,372.144957 C8.22369615,372.184156 8.26016809,372.223077 8.29689512,372.261754 C8.51519555,372.491628 8.74224585,372.712626 8.97772385,372.924439 L9.00009149,372.944508 L9,259.054 Z M659.000915,259.056393 L659.000915,372.943607 L659.025737,372.921325 L659.108646,372.84599 L659.145,372.811 L659.194974,372.766037 C659.259008,372.70615 659.322386,372.645569 659.385094,372.584307 C659.571324,372.402388 659.752006,372.214072 659.926452,372.020037 C659.95708,371.985968 659.987292,371.951978 660.017312,371.917816 C660.298669,371.597651 660.56333,371.262256 660.809823,370.913118 C660.823713,370.893444 660.837458,370.873851 660.851145,370.854216 C660.904868,370.777148 660.957755,370.699353 661.009744,370.620912 C661.028199,370.593067 661.046528,370.56516 661.064743,370.537173 C661.092698,370.494217 661.120089,370.451539 661.147216,370.408677 C661.175934,370.363304 661.204469,370.31754 661.232703,370.271572 C661.397684,370.002985 661.552593,369.727 661.696645,369.444553 C661.728684,369.381739 661.760394,369.318179 661.791553,369.254301 C661.804158,369.228461 661.81657,369.202782 661.828893,369.177052 L661.894406,369.037975 C661.930068,368.960992 661.965079,368.883245 661.999282,368.805062 C662.00375,368.794847 662.007956,368.785198 662.012148,368.775543 C662.045373,368.699043 662.078009,368.621675 662.109853,368.543899 C662.125679,368.505243 662.141283,368.466554 662.15669,368.427767 C662.275116,368.129618 662.381922,367.825648 662.476568,367.516365 C662.488912,367.47603 662.501093,367.435453 662.513065,367.394787 C662.534832,367.32085 662.555913,367.246591 662.576293,367.172043 C662.583634,367.145191 662.590819,367.11854 662.597916,367.091852 C662.614495,367.029504 662.630616,366.966829 662.646241,366.903959 C662.683568,366.753757 662.718003,366.602732 662.74956,366.450652 C662.794224,366.235379 662.833069,366.018333 662.865997,365.79935 C662.874449,365.743162 662.882595,365.686228 662.890341,365.629166 C662.914588,365.450444 662.934837,365.271184 662.951093,365.090774 L662.959696,364.990622 C662.977495,364.772777 662.989475,364.553345 662.995484,364.332442 L663,364 L663,268 C663,267.772955 662.993695,267.547384 662.981249,267.32345 C662.978849,267.280289 662.976248,267.237594 662.973424,267.194961 C662.968367,267.11857 662.962551,267.04186 662.956018,266.965356 L662.946302,266.857317 C662.938332,266.772951 662.929505,266.688984 662.919816,266.605279 C662.916259,266.574543 662.912551,266.543558 662.908725,266.512611 C662.882188,266.297952 662.849982,266.085049 662.812261,265.874057 C662.804813,265.832392 662.797127,265.790684 662.789227,265.749053 C662.755178,265.569634 662.717124,265.391583 662.675169,265.215043 C662.664882,265.171747 662.654241,265.128065 662.643361,265.084478 C662.624037,265.007065 662.604071,264.930358 662.583369,264.853954 L662.569123,264.801843 L662.554526,264.749393 C662.535024,264.679937 662.514997,264.611014 662.494371,264.542351 C662.463336,264.439039 662.430954,264.336334 662.397238,264.234235 C662.357409,264.113615 662.315632,263.993606 662.27202,263.874481 L662.251544,263.818977 C662.198529,263.676366 662.142881,263.535037 662.084658,263.395047 C662.058246,263.331539 662.031217,263.268107 662.00366,263.204958 L661.971016,263.130839 C661.942288,263.066204 661.912966,263.001787 661.883095,262.937678 C661.807504,262.775444 661.72834,262.615079 661.645748,262.456786 C661.562792,262.297777 661.476119,262.140413 661.386068,261.985252 C661.36146,261.942849 661.33647,261.900393 661.311227,261.858105 C661.274511,261.796599 661.237367,261.735622 661.199698,261.675006 L661.145791,261.589071 L661.061118,261.45726 C661.032061,261.412671 661.002812,261.36843 660.973279,261.324395 C660.932546,261.263662 660.891391,261.203492 660.849705,261.143719 C660.741389,260.988384 660.629053,260.83516 660.51323,260.684759 C660.417752,260.560773 660.319758,260.438529 660.219455,260.318279 L660.139115,260.222966 C660.092873,260.168676 660.045984,260.114607 659.998622,260.060965 C659.978261,260.037903 659.957536,260.014611 659.936721,259.9914 C659.86586,259.912389 659.794406,259.834786 659.721952,259.758139 L659.722231,259.758435 C659.49821,259.521447 659.264938,259.293859 659.02275,259.075988 L659.000915,259.056393 Z M522,125 C526.334914,125 529.864543,128.447838 529.996193,132.750821 L530,133 L530,239 C530,243.334914 526.552162,246.864543 522.249179,246.996193 L522,247 L146,247 C141.665086,247 138.135457,243.552162 138.003807,239.249179 L138,239 L138,133 C138,128.665086 141.447838,125.135457 145.750821,125.003807 L146,125 L522,125 Z M522,129 L146,129 C143.857805,129 142.108921,130.683968 142.004895,132.80036 L142,133 L142,239 C142,241.142195 143.683968,242.891079 145.80036,242.995105 L146,243 L522,243 C524.142195,243 525.891079,241.316032 525.995105,239.19964 L526,239 L526,133 C526,130.790861 524.209139,129 522,129 Z M472,141 C496.852814,141 517,161.147186 517,186 C517,210.852814 496.852814,231 472,231 C447.147186,231 427,210.852814 427,186 C427,161.147186 447.147186,141 472,141 Z M197,141 C221.852814,141 242,161.147186 242,186 C242,210.852814 221.852814,231 197,231 C172.147186,231 152,210.852814 152,186 C152,161.147186 172.147186,141 197,141 Z M409,144 C413.418278,144 417,147.581722 417,152 L417,219 C417,223.418278 413.418278,227 409,227 L260,227 C255.581722,227 252,223.418278 252,219 L252,152 C252,147.581722 255.581722,144 260,144 L409,144 Z M409,148 L260,148 C257.857805,148 256.108921,149.683968 256.004895,151.80036 L256,152 L256,219 C256,221.142195 257.683968,222.891079 259.80036,222.995105 L260,223 L409,223 C411.142195,223 412.891079,221.316032 412.995105,219.19964 L413,219 L413,152 C413,149.857805 411.316032,148.108921 409.19964,148.004895 L409,148 Z M472,151 C452.670034,151 437,166.670034 437,186 C437,205.329966 452.670034,221 472,221 C491.329966,221 507,205.329966 507,186 C507,166.670034 491.329966,151 472,151 Z M197,151 C177.670034,151 162,166.670034 162,186 C162,205.329966 177.670034,221 197,221 C216.329966,221 232,205.329966 232,186 C232,166.670034 216.329966,151 197,151 Z" id="Outline-Copy" fill="#DF4900"></path>
            </g>
            <g id="Label" transform="translate(40.000000, 33.000000)">
                <path d="M578,0 C583.522847,-1.01453063e-15 588,4.4771525 588,10 L588,247 C588,252.522847 583.522847,257 578,257 L10,257 C4.4771525,257 6.76353751e-16,252.522847 0,247 L0,10 C1.10000309e-15,4.4771525 4.4771525,1.01453063e-15 10,0 L578,0 Z M482,96 L106,96 C103.790861,96 102,97.790861 102,100 L102,100 L102,206 C102,208.209139 103.790861,210 106,210 L106,210 L482,210 C484.209139,210 486,208.209139 486,206 L486,206 L486,100 C486,97.790861 484.209139,96 482,96 L482,96 Z" id="Combined-Shape-Copy-4" fill="#A7D7FF"></path>
                <rect id="Rectangle-Copy-11" fill-opacity="0.8" fill="#FFFFFF" x="11" y="22.712585" width="565" height="49.5748299"></rect>
                <g id="Group" transform="translate(14.000000, 98.000000)" fill="#828282">
                    <rect id="Rectangle" x="0" y="0" width="72" height="6"></rect>
                    <rect id="Rectangle-Copy-12" x="0" y="13" width="72" height="6"></rect>
                    <rect id="Rectangle-Copy-13" x="0" y="26" width="72" height="6"></rect>
                    <rect id="Rectangle-Copy-15" x="0" y="39" width="72" height="6"></rect>
                    <rect id="Rectangle-Copy-16" x="0" y="52" width="72" height="6"></rect>
                    <rect id="Rectangle-Copy-17" x="0" y="65" width="72" height="6"></rect>
                    <rect id="Rectangle-Copy-18" x="0" y="78" width="72" height="6"></rect>
                    <rect id="Rectangle-Copy-19" x="0" y="91" width="72" height="6"></rect>
                    <rect id="Rectangle-Copy-20" x="0" y="104" width="72" height="6"></rect>
                </g>
                <g id="Group-Copy" transform="translate(11.000000, 22.000000)" fill="#828282">
                    <rect id="Rectangle" x="491" y="76" width="72" height="6"></rect>
                    <rect id="Rectangle-Copy-14" x="0" y="48" width="565" height="6"></rect>
                    <rect id="Rectangle-Copy-21" x="0" y="0" width="565" height="1.5"></rect>
                    <rect id="Rectangle-Copy-12" x="491" y="89" width="72" height="6"></rect>
                    <rect id="Rectangle-Copy-13" x="491" y="102" width="72" height="6"></rect>
                    <rect id="Rectangle-Copy-15" x="491" y="115" width="72" height="6"></rect>
                    <rect id="Rectangle-Copy-16" x="491" y="128" width="72" height="6"></rect>
                    <rect id="Rectangle-Copy-17" x="491" y="141" width="72" height="6"></rect>
                    <rect id="Rectangle-Copy-18" x="491" y="154" width="72" height="6"></rect>
                    <rect id="Rectangle-Copy-19" x="491" y="167" width="72" height="6"></rect>
                    <rect id="Rectangle-Copy-20" x="491" y="180" width="72" height="6"></rect>
                </g>
                <path d="M442.272,243.272 C442.965333,243.272 443.6,243.16 444.176,242.936 C444.752,242.712 445.253333,242.394667 445.68,241.984 C446.106667,241.573333 446.445333,241.085333 446.696,240.52 C446.946667,239.954667 447.093333,239.330667 447.136,238.648 L447.136,238.648 L445.184,238.648 C445.141333,239.064 445.050667,239.453333 444.912,239.816 C444.773333,240.178667 444.581333,240.496 444.336,240.768 C444.090667,241.04 443.797333,241.253333 443.456,241.408 C443.114667,241.562667 442.72,241.64 442.272,241.64 C441.664,241.64 441.138667,241.517333 440.696,241.272 C440.253333,241.026667 439.893333,240.698667 439.616,240.288 C439.338667,239.877333 439.133333,239.410667 439,238.888 C438.866667,238.365333 438.8,237.832 438.8,237.288 C438.8,236.744 438.866667,236.210667 439,235.688 C439.133333,235.165333 439.338667,234.698667 439.616,234.288 C439.893333,233.877333 440.253333,233.549333 440.696,233.304 C441.138667,233.058667 441.664,232.936 442.272,232.936 C442.688,232.936 443.053333,232.992 443.368,233.104 C443.682667,233.216 443.957333,233.373333 444.192,233.576 C444.426667,233.778667 444.618667,234.018667 444.768,234.296 C444.917333,234.573333 445.034667,234.877333 445.12,235.208 L445.12,235.208 L447.12,235.208 C447.056,234.589333 446.890667,234.04 446.624,233.56 C446.357333,233.08 446.008,232.672 445.576,232.336 C445.144,232 444.645333,231.744 444.08,231.568 C443.514667,231.392 442.912,231.304 442.272,231.304 C441.418667,231.304 440.653333,231.464 439.976,231.784 C439.298667,232.104 438.725333,232.536 438.256,233.08 C437.786667,233.624 437.426667,234.258667 437.176,234.984 C436.925333,235.709333 436.8,236.477333 436.8,237.288 C436.8,238.109333 436.925333,238.882667 437.176,239.608 C437.426667,240.333333 437.786667,240.968 438.256,241.512 C438.725333,242.056 439.298667,242.485333 439.976,242.8 C440.653333,243.114667 441.418667,243.272 442.272,243.272 Z M452.496,243.224 C453.157333,243.224 453.746667,243.114667 454.264,242.896 C454.781333,242.677333 455.218667,242.376 455.576,241.992 C455.933333,241.608 456.205333,241.149333 456.392,240.616 C456.578667,240.082667 456.672,239.496 456.672,238.856 C456.672,238.226667 456.578667,237.645333 456.392,237.112 C456.205333,236.578667 455.933333,236.12 455.576,235.736 C455.218667,235.352 454.781333,235.050667 454.264,234.832 C453.746667,234.613333 453.157333,234.504 452.496,234.504 C451.834667,234.504 451.245333,234.613333 450.728,234.832 C450.210667,235.050667 449.773333,235.352 449.416,235.736 C449.058667,236.12 448.786667,236.578667 448.6,237.112 C448.413333,237.645333 448.32,238.226667 448.32,238.856 C448.32,239.496 448.413333,240.082667 448.6,240.616 C448.786667,241.149333 449.058667,241.608 449.416,241.992 C449.773333,242.376 450.210667,242.677333 450.728,242.896 C451.245333,243.114667 451.834667,243.224 452.496,243.224 Z M452.496,241.784 C452.090667,241.784 451.738667,241.698667 451.44,241.528 C451.141333,241.357333 450.896,241.133333 450.704,240.856 C450.512,240.578667 450.370667,240.266667 450.28,239.92 C450.189333,239.573333 450.144,239.218667 450.144,238.856 C450.144,238.504 450.189333,238.152 450.28,237.8 C450.370667,237.448 450.512,237.136 450.704,236.864 C450.896,236.592 451.141333,236.370667 451.44,236.2 C451.738667,236.029333 452.090667,235.944 452.496,235.944 C452.901333,235.944 453.253333,236.029333 453.552,236.2 C453.850667,236.370667 454.096,236.592 454.288,236.864 C454.48,237.136 454.621333,237.448 454.712,237.8 C454.802667,238.152 454.848,238.504 454.848,238.856 C454.848,239.218667 454.802667,239.573333 454.712,239.92 C454.621333,240.266667 454.48,240.578667 454.288,240.856 C454.096,241.133333 453.850667,241.357333 453.552,241.528 C453.253333,241.698667 452.901333,241.784 452.496,241.784 Z M460.016,243 L460.016,238.088 C460.016,237.746667 460.066667,237.442667 460.168,237.176 C460.269333,236.909333 460.402667,236.685333 460.568,236.504 C460.733333,236.322667 460.925333,236.184 461.144,236.088 C461.362667,235.992 461.589333,235.944 461.824,235.944 C462.378667,235.944 462.76,236.090667 462.968,236.384 C463.176,236.677333 463.28,237.112 463.28,237.688 L463.28,237.688 L463.28,243 L465.104,243 L465.104,238.152 C465.104,237.448 465.242667,236.904 465.52,236.52 C465.797333,236.136 466.245333,235.944 466.864,235.944 C467.216,235.944 467.493333,235.997333 467.696,236.104 C467.898667,236.210667 468.050667,236.362667 468.152,236.56 C468.253333,236.757333 468.314667,236.992 468.336,237.264 C468.357333,237.536 468.368,237.837333 468.368,238.168 L468.368,238.168 L468.368,243 L470.192,243 L470.192,237.288 C470.192,236.285333 469.949333,235.570667 469.464,235.144 C468.978667,234.717333 468.298667,234.504 467.424,234.504 C466.816,234.504 466.309333,234.626667 465.904,234.872 C465.498667,235.117333 465.141333,235.453333 464.832,235.88 C464.650667,235.410667 464.344,235.064 463.912,234.84 C463.48,234.616 463.013333,234.504 462.512,234.504 C462.181333,234.504 461.888,234.538667 461.632,234.608 C461.376,234.677333 461.149333,234.770667 460.952,234.888 C460.754667,235.005333 460.576,235.149333 460.416,235.32 C460.256,235.490667 460.106667,235.677333 459.968,235.88 L459.968,235.88 L459.92,235.88 L459.92,234.728 L458.192,234.728 L458.192,243 L460.016,243 Z M473.984,246.056 L473.984,241.928 L474.016,241.928 C474.154667,242.152 474.328,242.346667 474.536,242.512 C474.744,242.677333 474.970667,242.813333 475.216,242.92 C475.461333,243.026667 475.717333,243.104 475.984,243.152 C476.250667,243.2 476.517333,243.224 476.784,243.224 C477.392,243.224 477.92,243.104 478.368,242.864 C478.816,242.624 479.186667,242.304 479.48,241.904 C479.773333,241.504 479.992,241.042667 480.136,240.52 C480.28,239.997333 480.352,239.458667 480.352,238.904 C480.352,238.296 480.272,237.725333 480.112,237.192 C479.952,236.658667 479.712,236.192 479.392,235.792 C479.072,235.392 478.669333,235.077333 478.184,234.848 C477.698667,234.618667 477.130667,234.504 476.48,234.504 C475.946667,234.504 475.450667,234.608 474.992,234.816 C474.533333,235.024 474.176,235.368 473.92,235.848 L473.92,235.848 L473.888,235.848 L473.888,234.728 L472.16,234.728 L472.16,246.056 L473.984,246.056 Z M476.24,241.784 C475.866667,241.784 475.538667,241.709333 475.256,241.56 C474.973333,241.410667 474.730667,241.208 474.528,240.952 C474.325333,240.696 474.173333,240.389333 474.072,240.032 C473.970667,239.674667 473.92,239.288 473.92,238.872 C473.92,237.986667 474.114667,237.277333 474.504,236.744 C474.893333,236.210667 475.472,235.944 476.24,235.944 C476.613333,235.944 476.944,236.026667 477.232,236.192 C477.52,236.357333 477.76,236.576 477.952,236.848 C478.144,237.12 478.288,237.432 478.384,237.784 C478.48,238.136 478.528,238.498667 478.528,238.872 C478.528,239.234667 478.488,239.589333 478.408,239.936 C478.328,240.282667 478.194667,240.592 478.008,240.864 C477.821333,241.136 477.584,241.357333 477.296,241.528 C477.008,241.698667 476.656,241.784 476.24,241.784 Z M488.544,243.224 C488.618667,243.224 488.709333,243.218667 488.816,243.208 C488.922667,243.197333 489.029333,243.181333 489.136,243.16 C489.242667,243.138667 489.346667,243.114667 489.448,243.088 C489.549333,243.061333 489.632,243.037333 489.696,243.016 L489.696,243.016 L489.696,241.752 C489.6,241.773333 489.514667,241.784 489.44,241.784 L489.44,241.784 L489.248,241.784 C489.077333,241.784 488.962667,241.736 488.904,241.64 C488.845333,241.544 488.816,241.384 488.816,241.16 L488.816,241.16 L488.816,236.904 C488.816,236.466667 488.72,236.096 488.528,235.792 C488.336,235.488 488.082667,235.24 487.768,235.048 C487.453333,234.856 487.098667,234.717333 486.704,234.632 C486.309333,234.546667 485.909333,234.504 485.504,234.504 C485.045333,234.504 484.597333,234.546667 484.16,234.632 C483.722667,234.717333 483.330667,234.866667 482.984,235.08 C482.637333,235.293333 482.352,235.576 482.128,235.928 C481.904,236.28 481.776,236.722667 481.744,237.256 L481.744,237.256 L483.568,237.256 C483.610667,236.808 483.797333,236.477333 484.128,236.264 C484.458667,236.050667 484.88,235.944 485.392,235.944 C485.573333,235.944 485.765333,235.957333 485.968,235.984 C486.170667,236.010667 486.354667,236.064 486.52,236.144 C486.685333,236.224 486.824,236.338667 486.936,236.488 C487.048,236.637333 487.104,236.829333 487.104,237.064 C487.104,237.330667 487.037333,237.530667 486.904,237.664 C486.770667,237.797333 486.589333,237.896 486.36,237.96 C486.130667,238.024 485.866667,238.069333 485.568,238.096 C485.269333,238.122667 484.954667,238.168 484.624,238.232 C484.24,238.274667 483.858667,238.336 483.48,238.416 C483.101333,238.496 482.76,238.626667 482.456,238.808 C482.152,238.989333 481.906667,239.24 481.72,239.56 C481.533333,239.88 481.44,240.296 481.44,240.808 C481.44,241.213333 481.517333,241.568 481.672,241.872 C481.826667,242.176 482.034667,242.426667 482.296,242.624 C482.557333,242.821333 482.858667,242.970667 483.2,243.072 C483.541333,243.173333 483.898667,243.224 484.272,243.224 C484.762667,243.224 485.272,243.144 485.8,242.984 C486.328,242.824 486.773333,242.568 487.136,242.216 C487.210667,242.589333 487.370667,242.850667 487.616,243 C487.861333,243.149333 488.170667,243.224 488.544,243.224 Z M484.944,241.784 C484.784,241.784 484.605333,241.768 484.408,241.736 C484.210667,241.704 484.029333,241.648 483.864,241.568 C483.698667,241.488 483.557333,241.378667 483.44,241.24 C483.322667,241.101333 483.264,240.930667 483.264,240.728 C483.264,240.493333 483.304,240.293333 483.384,240.128 C483.464,239.962667 483.573333,239.829333 483.712,239.728 C483.850667,239.626667 484.010667,239.546667 484.192,239.488 C484.373333,239.429333 484.56,239.384 484.752,239.352 C485.157333,239.277333 485.562667,239.221333 485.968,239.184 C486.373333,239.146667 486.714667,239.037333 486.992,238.856 L486.992,238.856 L486.992,240.216 C486.992,240.504 486.922667,240.746667 486.784,240.944 C486.645333,241.141333 486.472,241.304 486.264,241.432 C486.056,241.56 485.834667,241.650667 485.6,241.704 C485.365333,241.757333 485.146667,241.784 484.944,241.784 Z M494.4,243.224 C495.466667,243.224 496.322667,242.938667 496.968,242.368 C497.613333,241.797333 498.021333,240.973333 498.192,239.896 L498.192,239.896 L496.368,239.896 C496.282667,240.493333 496.066667,240.957333 495.72,241.288 C495.373333,241.618667 494.933333,241.784 494.4,241.784 C494.005333,241.784 493.669333,241.701333 493.392,241.536 C493.114667,241.370667 492.888,241.154667 492.712,240.888 C492.536,240.621333 492.408,240.317333 492.328,239.976 C492.248,239.634667 492.208,239.293333 492.208,238.952 C492.208,238.322667 492.282667,237.813333 492.432,237.424 C492.581333,237.034667 492.768,236.730667 492.992,236.512 C493.216,236.293333 493.461333,236.144 493.728,236.064 C493.994667,235.984 494.245333,235.944 494.48,235.944 C494.992,235.944 495.416,236.074667 495.752,236.336 C496.088,236.597333 496.293333,236.984 496.368,237.496 L496.368,237.496 L498.192,237.496 C498.149333,236.984 498.021333,236.541333 497.808,236.168 C497.594667,235.794667 497.32,235.485333 496.984,235.24 C496.648,234.994667 496.264,234.810667 495.832,234.688 C495.4,234.565333 494.944,234.504 494.464,234.504 C493.781333,234.504 493.186667,234.618667 492.68,234.848 C492.173333,235.077333 491.749333,235.392 491.408,235.792 C491.066667,236.192 490.810667,236.664 490.64,237.208 C490.469333,237.752 490.384,238.333333 490.384,238.952 C490.384,239.56 490.472,240.125333 490.648,240.648 C490.824,241.170667 491.082667,241.621333 491.424,242 C491.765333,242.378667 492.184,242.677333 492.68,242.896 C493.176,243.114667 493.749333,243.224 494.4,243.224 Z M502.512,243.08 C502.714667,243.08 502.912,243.069333 503.104,243.048 C503.296,243.026667 503.493333,243.005333 503.696,242.984 L503.696,242.984 L503.696,241.576 C503.568,241.608 503.44,241.626667 503.312,241.632 C503.184,241.637333 503.056,241.64 502.928,241.64 C502.725333,241.64 502.565333,241.616 502.448,241.568 C502.330667,241.52 502.242667,241.448 502.184,241.352 C502.125333,241.256 502.088,241.138667 502.072,241 C502.056,240.861333 502.048,240.696 502.048,240.504 L502.048,240.504 L502.048,236.088 L503.696,236.088 L503.696,234.728 L502.048,234.728 L502.048,232.248 L500.224,232.248 L500.224,234.728 L498.848,234.728 L498.848,236.088 L500.224,236.088 L500.224,240.968 C500.234667,241.309333 500.269333,241.613333 500.328,241.88 C500.386667,242.146667 500.498667,242.368 500.664,242.544 C500.829333,242.72 501.058667,242.853333 501.352,242.944 C501.645333,243.034667 502.032,243.08 502.512,243.08 Z M514.576,243.272 C515.269333,243.272 515.904,243.16 516.48,242.936 C517.056,242.712 517.557333,242.394667 517.984,241.984 C518.410667,241.573333 518.749333,241.085333 519,240.52 C519.250667,239.954667 519.397333,239.330667 519.44,238.648 L519.44,238.648 L517.488,238.648 C517.445333,239.064 517.354667,239.453333 517.216,239.816 C517.077333,240.178667 516.885333,240.496 516.64,240.768 C516.394667,241.04 516.101333,241.253333 515.76,241.408 C515.418667,241.562667 515.024,241.64 514.576,241.64 C513.968,241.64 513.442667,241.517333 513,241.272 C512.557333,241.026667 512.197333,240.698667 511.92,240.288 C511.642667,239.877333 511.437333,239.410667 511.304,238.888 C511.170667,238.365333 511.104,237.832 511.104,237.288 C511.104,236.744 511.170667,236.210667 511.304,235.688 C511.437333,235.165333 511.642667,234.698667 511.92,234.288 C512.197333,233.877333 512.557333,233.549333 513,233.304 C513.442667,233.058667 513.968,232.936 514.576,232.936 C514.992,232.936 515.357333,232.992 515.672,233.104 C515.986667,233.216 516.261333,233.373333 516.496,233.576 C516.730667,233.778667 516.922667,234.018667 517.072,234.296 C517.221333,234.573333 517.338667,234.877333 517.424,235.208 L517.424,235.208 L519.424,235.208 C519.36,234.589333 519.194667,234.04 518.928,233.56 C518.661333,233.08 518.312,232.672 517.88,232.336 C517.448,232 516.949333,231.744 516.384,231.568 C515.818667,231.392 515.216,231.304 514.576,231.304 C513.722667,231.304 512.957333,231.464 512.28,231.784 C511.602667,232.104 511.029333,232.536 510.56,233.08 C510.090667,233.624 509.730667,234.258667 509.48,234.984 C509.229333,235.709333 509.104,236.477333 509.104,237.288 C509.104,238.109333 509.229333,238.882667 509.48,239.608 C509.730667,240.333333 510.090667,240.968 510.56,241.512 C511.029333,242.056 511.602667,242.485333 512.28,242.8 C512.957333,243.114667 513.722667,243.272 514.576,243.272 Z M527.664,243.224 C527.738667,243.224 527.829333,243.218667 527.936,243.208 C528.042667,243.197333 528.149333,243.181333 528.256,243.16 C528.362667,243.138667 528.466667,243.114667 528.568,243.088 C528.669333,243.061333 528.752,243.037333 528.816,243.016 L528.816,243.016 L528.816,241.752 C528.72,241.773333 528.634667,241.784 528.56,241.784 L528.56,241.784 L528.368,241.784 C528.197333,241.784 528.082667,241.736 528.024,241.64 C527.965333,241.544 527.936,241.384 527.936,241.16 L527.936,241.16 L527.936,236.904 C527.936,236.466667 527.84,236.096 527.648,235.792 C527.456,235.488 527.202667,235.24 526.888,235.048 C526.573333,234.856 526.218667,234.717333 525.824,234.632 C525.429333,234.546667 525.029333,234.504 524.624,234.504 C524.165333,234.504 523.717333,234.546667 523.28,234.632 C522.842667,234.717333 522.450667,234.866667 522.104,235.08 C521.757333,235.293333 521.472,235.576 521.248,235.928 C521.024,236.28 520.896,236.722667 520.864,237.256 L520.864,237.256 L522.688,237.256 C522.730667,236.808 522.917333,236.477333 523.248,236.264 C523.578667,236.050667 524,235.944 524.512,235.944 C524.693333,235.944 524.885333,235.957333 525.088,235.984 C525.290667,236.010667 525.474667,236.064 525.64,236.144 C525.805333,236.224 525.944,236.338667 526.056,236.488 C526.168,236.637333 526.224,236.829333 526.224,237.064 C526.224,237.330667 526.157333,237.530667 526.024,237.664 C525.890667,237.797333 525.709333,237.896 525.48,237.96 C525.250667,238.024 524.986667,238.069333 524.688,238.096 C524.389333,238.122667 524.074667,238.168 523.744,238.232 C523.36,238.274667 522.978667,238.336 522.6,238.416 C522.221333,238.496 521.88,238.626667 521.576,238.808 C521.272,238.989333 521.026667,239.24 520.84,239.56 C520.653333,239.88 520.56,240.296 520.56,240.808 C520.56,241.213333 520.637333,241.568 520.792,241.872 C520.946667,242.176 521.154667,242.426667 521.416,242.624 C521.677333,242.821333 521.978667,242.970667 522.32,243.072 C522.661333,243.173333 523.018667,243.224 523.392,243.224 C523.882667,243.224 524.392,243.144 524.92,242.984 C525.448,242.824 525.893333,242.568 526.256,242.216 C526.330667,242.589333 526.490667,242.850667 526.736,243 C526.981333,243.149333 527.290667,243.224 527.664,243.224 Z M524.064,241.784 C523.904,241.784 523.725333,241.768 523.528,241.736 C523.330667,241.704 523.149333,241.648 522.984,241.568 C522.818667,241.488 522.677333,241.378667 522.56,241.24 C522.442667,241.101333 522.384,240.930667 522.384,240.728 C522.384,240.493333 522.424,240.293333 522.504,240.128 C522.584,239.962667 522.693333,239.829333 522.832,239.728 C522.970667,239.626667 523.130667,239.546667 523.312,239.488 C523.493333,239.429333 523.68,239.384 523.872,239.352 C524.277333,239.277333 524.682667,239.221333 525.088,239.184 C525.493333,239.146667 525.834667,239.037333 526.112,238.856 L526.112,238.856 L526.112,240.216 C526.112,240.504 526.042667,240.746667 525.904,240.944 C525.765333,241.141333 525.592,241.304 525.384,241.432 C525.176,241.56 524.954667,241.650667 524.72,241.704 C524.485333,241.757333 524.266667,241.784 524.064,241.784 Z M533.12,243.224 C533.546667,243.224 533.978667,243.176 534.416,243.08 C534.853333,242.984 535.250667,242.829333 535.608,242.616 C535.965333,242.402667 536.256,242.125333 536.48,241.784 C536.704,241.442667 536.816,241.026667 536.816,240.536 C536.816,240.130667 536.738667,239.789333 536.584,239.512 C536.429333,239.234667 536.226667,239.005333 535.976,238.824 C535.725333,238.642667 535.44,238.498667 535.12,238.392 C534.8,238.285333 534.474667,238.194667 534.144,238.12 C533.802667,238.045333 533.472,237.976 533.152,237.912 C532.832,237.848 532.546667,237.770667 532.296,237.68 C532.045333,237.589333 531.842667,237.474667 531.688,237.336 C531.533333,237.197333 531.456,237.016 531.456,236.792 C531.456,236.610667 531.509333,236.464 531.616,236.352 C531.722667,236.24 531.853333,236.154667 532.008,236.096 C532.162667,236.037333 532.328,235.997333 532.504,235.976 C532.68,235.954667 532.832,235.944 532.96,235.944 C533.365333,235.944 533.725333,236.018667 534.04,236.168 C534.354667,236.317333 534.554667,236.610667 534.64,237.048 L534.64,237.048 L536.544,237.048 C536.490667,236.589333 536.36,236.197333 536.152,235.872 C535.944,235.546667 535.682667,235.282667 535.368,235.08 C535.053333,234.877333 534.701333,234.730667 534.312,234.64 C533.922667,234.549333 533.514667,234.504 533.088,234.504 C532.714667,234.504 532.322667,234.541333 531.912,234.616 C531.501333,234.690667 531.128,234.821333 530.792,235.008 C530.456,235.194667 530.178667,235.44 529.96,235.744 C529.741333,236.048 529.632,236.424 529.632,236.872 C529.632,237.288 529.706667,237.637333 529.856,237.92 C530.005333,238.202667 530.205333,238.434667 530.456,238.616 C530.706667,238.797333 530.989333,238.941333 531.304,239.048 C531.618667,239.154667 531.946667,239.245333 532.288,239.32 C532.618667,239.394667 532.944,239.464 533.264,239.528 C533.584,239.592 533.869333,239.669333 534.12,239.76 C534.370667,239.850667 534.576,239.970667 534.736,240.12 C534.896,240.269333 534.981333,240.461333 534.992,240.696 C535.002667,240.930667 534.946667,241.12 534.824,241.264 C534.701333,241.408 534.544,241.517333 534.352,241.592 C534.16,241.666667 533.954667,241.717333 533.736,241.744 C533.517333,241.770667 533.322667,241.784 533.152,241.784 C532.661333,241.784 532.24,241.677333 531.888,241.464 C531.536,241.250667 531.333333,240.877333 531.28,240.344 L531.28,240.344 L529.456,240.344 C529.466667,240.834667 529.565333,241.258667 529.752,241.616 C529.938667,241.973333 530.194667,242.272 530.52,242.512 C530.845333,242.752 531.229333,242.930667 531.672,243.048 C532.114667,243.165333 532.597333,243.224 533.12,243.224 Z M541.424,243.224 C541.850667,243.224 542.282667,243.176 542.72,243.08 C543.157333,242.984 543.554667,242.829333 543.912,242.616 C544.269333,242.402667 544.56,242.125333 544.784,241.784 C545.008,241.442667 545.12,241.026667 545.12,240.536 C545.12,240.130667 545.042667,239.789333 544.888,239.512 C544.733333,239.234667 544.530667,239.005333 544.28,238.824 C544.029333,238.642667 543.744,238.498667 543.424,238.392 C543.104,238.285333 542.778667,238.194667 542.448,238.12 C542.106667,238.045333 541.776,237.976 541.456,237.912 C541.136,237.848 540.850667,237.770667 540.6,237.68 C540.349333,237.589333 540.146667,237.474667 539.992,237.336 C539.837333,237.197333 539.76,237.016 539.76,236.792 C539.76,236.610667 539.813333,236.464 539.92,236.352 C540.026667,236.24 540.157333,236.154667 540.312,236.096 C540.466667,236.037333 540.632,235.997333 540.808,235.976 C540.984,235.954667 541.136,235.944 541.264,235.944 C541.669333,235.944 542.029333,236.018667 542.344,236.168 C542.658667,236.317333 542.858667,236.610667 542.944,237.048 L542.944,237.048 L544.848,237.048 C544.794667,236.589333 544.664,236.197333 544.456,235.872 C544.248,235.546667 543.986667,235.282667 543.672,235.08 C543.357333,234.877333 543.005333,234.730667 542.616,234.64 C542.226667,234.549333 541.818667,234.504 541.392,234.504 C541.018667,234.504 540.626667,234.541333 540.216,234.616 C539.805333,234.690667 539.432,234.821333 539.096,235.008 C538.76,235.194667 538.482667,235.44 538.264,235.744 C538.045333,236.048 537.936,236.424 537.936,236.872 C537.936,237.288 538.010667,237.637333 538.16,237.92 C538.309333,238.202667 538.509333,238.434667 538.76,238.616 C539.010667,238.797333 539.293333,238.941333 539.608,239.048 C539.922667,239.154667 540.250667,239.245333 540.592,239.32 C540.922667,239.394667 541.248,239.464 541.568,239.528 C541.888,239.592 542.173333,239.669333 542.424,239.76 C542.674667,239.850667 542.88,239.970667 543.04,240.12 C543.2,240.269333 543.285333,240.461333 543.296,240.696 C543.306667,240.930667 543.250667,241.12 543.128,241.264 C543.005333,241.408 542.848,241.517333 542.656,241.592 C542.464,241.666667 542.258667,241.717333 542.04,241.744 C541.821333,241.770667 541.626667,241.784 541.456,241.784 C540.965333,241.784 540.544,241.677333 540.192,241.464 C539.84,241.250667 539.637333,240.877333 539.584,240.344 L539.584,240.344 L537.76,240.344 C537.770667,240.834667 537.869333,241.258667 538.056,241.616 C538.242667,241.973333 538.498667,242.272 538.824,242.512 C539.149333,242.752 539.533333,242.930667 539.976,243.048 C540.418667,243.165333 540.901333,243.224 541.424,243.224 Z M550.16,243.224 C550.608,243.224 551.037333,243.162667 551.448,243.04 C551.858667,242.917333 552.229333,242.736 552.56,242.496 C552.890667,242.256 553.173333,241.96 553.408,241.608 C553.642667,241.256 553.808,240.856 553.904,240.408 L553.904,240.408 L552.176,240.408 C552.016,240.866667 551.773333,241.210667 551.448,241.44 C551.122667,241.669333 550.693333,241.784 550.16,241.784 C549.776,241.784 549.445333,241.717333 549.168,241.584 C548.890667,241.450667 548.661333,241.272 548.48,241.048 C548.298667,240.824 548.162667,240.562667 548.072,240.264 C547.981333,239.965333 547.936,239.656 547.936,239.336 L547.936,239.336 L554.016,239.336 C554.090667,238.717333 554.050667,238.117333 553.896,237.536 C553.741333,236.954667 553.493333,236.44 553.152,235.992 C552.810667,235.544 552.381333,235.184 551.864,234.912 C551.346667,234.64 550.762667,234.504 550.112,234.504 C549.493333,234.504 548.938667,234.621333 548.448,234.856 C547.957333,235.090667 547.538667,235.408 547.192,235.808 C546.845333,236.208 546.578667,236.672 546.392,237.2 C546.205333,237.728 546.112,238.285333 546.112,238.872 C546.112,239.512 546.2,240.098667 546.376,240.632 C546.552,241.165333 546.813333,241.624 547.16,242.008 C547.506667,242.392 547.930667,242.690667 548.432,242.904 C548.933333,243.117333 549.509333,243.224 550.16,243.224 Z M552.192,238.136 L547.936,238.136 C547.946667,237.826667 548.008,237.538667 548.12,237.272 C548.232,237.005333 548.381333,236.773333 548.568,236.576 C548.754667,236.378667 548.978667,236.224 549.24,236.112 C549.501333,236 549.792,235.944 550.112,235.944 C550.421333,235.944 550.701333,236.005333 550.952,236.128 C551.202667,236.250667 551.416,236.410667 551.592,236.608 C551.768,236.805333 551.906667,237.037333 552.008,237.304 C552.109333,237.570667 552.170667,237.848 552.192,238.136 L552.192,238.136 Z M558.24,243.08 C558.442667,243.08 558.64,243.069333 558.832,243.048 C559.024,243.026667 559.221333,243.005333 559.424,242.984 L559.424,242.984 L559.424,241.576 C559.296,241.608 559.168,241.626667 559.04,241.632 C558.912,241.637333 558.784,241.64 558.656,241.64 C558.453333,241.64 558.293333,241.616 558.176,241.568 C558.058667,241.52 557.970667,241.448 557.912,241.352 C557.853333,241.256 557.816,241.138667 557.8,241 C557.784,240.861333 557.776,240.696 557.776,240.504 L557.776,240.504 L557.776,236.088 L559.424,236.088 L559.424,234.728 L557.776,234.728 L557.776,232.248 L555.952,232.248 L555.952,234.728 L554.576,234.728 L554.576,236.088 L555.952,236.088 L555.952,240.968 C555.962667,241.309333 555.997333,241.613333 556.056,241.88 C556.114667,242.146667 556.226667,242.368 556.392,242.544 C556.557333,242.72 556.786667,242.853333 557.08,242.944 C557.373333,243.034667 557.76,243.08 558.24,243.08 Z M563.568,243.08 C563.770667,243.08 563.968,243.069333 564.16,243.048 C564.352,243.026667 564.549333,243.005333 564.752,242.984 L564.752,242.984 L564.752,241.576 C564.624,241.608 564.496,241.626667 564.368,241.632 C564.24,241.637333 564.112,241.64 563.984,241.64 C563.781333,241.64 563.621333,241.616 563.504,241.568 C563.386667,241.52 563.298667,241.448 563.24,241.352 C563.181333,241.256 563.144,241.138667 563.128,241 C563.112,240.861333 563.104,240.696 563.104,240.504 L563.104,240.504 L563.104,236.088 L564.752,236.088 L564.752,234.728 L563.104,234.728 L563.104,232.248 L561.28,232.248 L561.28,234.728 L559.904,234.728 L559.904,236.088 L561.28,236.088 L561.28,240.968 C561.290667,241.309333 561.325333,241.613333 561.384,241.88 C561.442667,242.146667 561.554667,242.368 561.72,242.544 C561.885333,242.72 562.114667,242.853333 562.408,242.944 C562.701333,243.034667 563.088,243.08 563.568,243.08 Z M569.712,243.224 C570.16,243.224 570.589333,243.162667 571,243.04 C571.410667,242.917333 571.781333,242.736 572.112,242.496 C572.442667,242.256 572.725333,241.96 572.96,241.608 C573.194667,241.256 573.36,240.856 573.456,240.408 L573.456,240.408 L571.728,240.408 C571.568,240.866667 571.325333,241.210667 571,241.44 C570.674667,241.669333 570.245333,241.784 569.712,241.784 C569.328,241.784 568.997333,241.717333 568.72,241.584 C568.442667,241.450667 568.213333,241.272 568.032,241.048 C567.850667,240.824 567.714667,240.562667 567.624,240.264 C567.533333,239.965333 567.488,239.656 567.488,239.336 L567.488,239.336 L573.568,239.336 C573.642667,238.717333 573.602667,238.117333 573.448,237.536 C573.293333,236.954667 573.045333,236.44 572.704,235.992 C572.362667,235.544 571.933333,235.184 571.416,234.912 C570.898667,234.64 570.314667,234.504 569.664,234.504 C569.045333,234.504 568.490667,234.621333 568,234.856 C567.509333,235.090667 567.090667,235.408 566.744,235.808 C566.397333,236.208 566.130667,236.672 565.944,237.2 C565.757333,237.728 565.664,238.285333 565.664,238.872 C565.664,239.512 565.752,240.098667 565.928,240.632 C566.104,241.165333 566.365333,241.624 566.712,242.008 C567.058667,242.392 567.482667,242.690667 567.984,242.904 C568.485333,243.117333 569.061333,243.224 569.712,243.224 Z M571.744,238.136 L567.488,238.136 C567.498667,237.826667 567.56,237.538667 567.672,237.272 C567.784,237.005333 567.933333,236.773333 568.12,236.576 C568.306667,236.378667 568.530667,236.224 568.792,236.112 C569.053333,236 569.344,235.944 569.664,235.944 C569.973333,235.944 570.253333,236.005333 570.504,236.128 C570.754667,236.250667 570.968,236.410667 571.144,236.608 C571.32,236.805333 571.458667,237.037333 571.56,237.304 C571.661333,237.570667 571.722667,237.848 571.744,238.136 L571.744,238.136 Z" id="CompactCassette" fill="#828282" fill-rule="nonzero"></path>
                <rect id="Rectangle" fill="#EDF7FF" x="14" y="240" width="413" height="3"></rect>
            </g>
        </g>
    </g>
</svg>