<?xml version="1.0" encoding="UTF-8"?>
<svg width="670px" height="420px" viewBox="0 0 670 420" version="1.1" xmlns="http://www.w3.org/2000/svg" xmlns:xlink="http://www.w3.org/1999/xlink">
    <title>Artboard</title>
    <defs>
        <path d="M578,0 C583.522847,-1.01453063e-15 588,4.4771525 588,10 L588,247 C588,252.522847 583.522847,257 578,257 L10,257 C4.4771525,257 6.76353751e-16,252.522847 0,247 L0,10 C1.10000309e-15,4.4771525 4.4771525,1.01453063e-15 10,0 L578,0 Z M429,96 L159,96 C127.519769,96 102,121.519769 102,153 C102,184.480231 127.519769,210 159,210 L159,210 L429,210 C460.480231,210 486,184.480231 486,153 C486,121.519769 460.480231,96 429,96 L429,96 Z" id="path-1"></path>
    </defs>
    <g id="Artboard" stroke="none" stroke-width="1" fill="none" fill-rule="evenodd">
        <path d="M648.986527,7 C655.613944,7 660.986527,12.372583 660.986527,19 L660.986639,258.601963 C666.322332,261.195914 670,266.668474 670,273 L670,372 C670,378.331526 666.322332,383.804086 660.986639,386.398037 L660.986527,395 C660.986527,401.627417 655.613944,407 648.986527,407 L575.279936,407.000444 C574.867806,411.927855 571.412866,416.285525 566.357115,417.608893 C565.365091,417.86856 564.343875,418 563.31843,418 L108.512622,418 C102.222118,418 97.0621079,413.159775 96.5537347,407.000467 L22.0134731,407 C15.3860561,407 10.0134731,401.627417 10.0134731,395 L10.0133613,387.398037 C4.67766807,384.804086 1,379.331526 1,373 L1,274 C1,267.668474 4.67766807,262.195914 10.0133613,259.601963 L10.0134731,19 C10.0134731,12.372583 15.3860561,7 22.0134731,7 L648.986527,7 Z M163.718,374.767 L163.693316,374.795092 C161.508938,377.264624 160.183347,380.509496 160.183347,384.063549 C160.183347,391.79884 166.462702,398.069533 174.208679,398.069533 C178.86529,398.069533 182.991864,395.803308 185.542785,392.315034 L185.719,392.066 L185.537198,392.319196 C182.983066,395.765574 178.882354,398 174.258982,398 C166.515421,398 160.238024,391.731986 160.238024,384 C160.238024,380.592761 161.457021,377.469809 163.483304,375.042237 L163.718,374.767 Z M499.448,374.976 L499.431565,374.95531 C501.501628,377.395041 502.75,380.551952 502.75,384 C502.75,391.731986 496.472603,398 488.729042,398 C483.950653,398 479.73056,395.613225 477.199283,391.968507 L477.054,391.755 L477.194168,391.964497 C479.720687,395.650588 483.965888,398.069533 488.776845,398.069533 C496.522822,398.069533 502.802178,391.79884 502.802178,384.063549 C502.802178,380.696283 501.612261,377.606554 499.629432,375.190817 L499.448,374.976 Z M174.258982,374 C168.727867,374 164.244012,378.477153 164.244012,384 C164.244012,389.522847 168.727867,394 174.258982,394 C179.790097,394 184.273952,389.522847 184.273952,384 C184.273952,378.477153 179.790097,374 174.258982,374 Z M488.729042,374 C483.197927,374 478.714072,378.477153 478.714072,384 C478.714072,389.522847 483.197927,394 488.729042,394 C494.260157,394 498.744012,389.522847 498.744012,384 C498.744012,378.477153 494.260157,374 488.729042,374 Z M438.004,371.403 L437.988924,371.373007 C439.052309,373.346402 439.655689,375.602843 439.655689,378 C439.655689,385.731986 433.378292,392 425.634731,392 C419.782636,392 414.767924,388.420098 412.667267,383.333863 L412.567,383.084 L412.573361,383.101907 C414.600029,388.346464 419.696354,392.066968 425.66285,392.066968 C433.408827,392.066968 439.688182,385.796275 439.688182,378.060984 C439.688182,375.790257 439.147065,373.645741 438.186577,371.749013 L438.004,371.403 Z M225.303,370.837 L225.26184,370.907962 C224.014032,373.001597 223.297342,375.44771 223.297342,378.060984 C223.297342,385.796275 229.576697,392.066968 237.322674,392.066968 C243.159096,392.066968 248.162874,388.506916 250.275261,383.442719 C248.148225,388.471194 243.163474,392 237.353293,392 C229.609732,392 223.332335,385.731986 223.332335,378 C223.332335,375.525068 223.975503,373.200131 225.10405,371.182741 L225.303,370.837 Z M237.353293,368 C231.822178,368 227.338323,372.477153 227.338323,378 C227.338323,383.522847 231.822178,388 237.353293,388 C242.884409,388 247.368263,383.522847 247.368263,378 C247.368263,372.477153 242.884409,368 237.353293,368 Z M425.634731,368 C420.103615,368 415.61976,372.477153 415.61976,378 C415.61976,383.522847 420.103615,388 425.634731,388 C431.165846,388 435.649701,383.522847 435.649701,378 C435.649701,372.477153 431.165846,368 425.634731,368 Z M240.94868,131.575179 L127.159824,131.575179 L127.159824,245.360382 L240.94868,245.360382 L240.94868,131.575179 Z M546,131 L432,131 L432,245 L546,245 L546,131 Z M410.650184,150.963951 L261.351625,150.963951 C257.016711,150.963951 253.487083,154.411789 253.355432,158.714772 L253.351625,158.963951 L253.351625,225.99943 C253.351625,230.334344 256.799463,233.863973 261.102446,233.995623 L261.127593,233.995815 C256.823796,233.857947 253.377246,230.330864 253.377246,226 L253.377246,159 C253.377246,154.581722 256.964329,151 261.389222,151 L410.612275,151 C415.037168,151 418.624251,154.581722 418.624251,159 L418.624251,226 C418.624251,230.330881 415.177675,233.857973 410.873856,233.995817 L410.650184,233.99943 C414.985098,233.99943 418.514727,230.551592 418.646377,226.248609 L418.650184,225.99943 L418.650184,158.963951 C418.650184,154.545673 415.068462,150.963951 410.650184,150.963951 Z M410.612275,155 L261.389222,155 C259.243819,155 257.492318,156.683968 257.388136,158.80036 L257.383234,159 L257.383234,226 C257.383234,228.142195 259.069723,229.891079 261.189282,229.995105 L261.389222,230 L410.612275,230 C412.757678,230 414.509179,228.316032 414.613361,226.19964 L414.618263,226 L414.618263,159 C414.618263,156.857805 412.931774,155.108921 410.812215,155.004895 L410.612275,155 Z" id="Tape-Shadow" fill-opacity="0.1" fill="#000000"></path>

        <g id="Tape3" transform="translate(1.000000, 1.000000)">
            <g id="Tape-Shell">
                <path d="M646,5 C650.418278,5 654,8.581722 654,13 L654.000932,256.378292 C659.176141,257.710745 663,262.408817 663,268 L663,364 C663,369.591183 659.176141,374.289255 654.000932,375.621708 L654,387 C654,391.418278 650.418278,395 646,395 L568.019,395 L568.533452,397.071231 C569.598682,401.359175 566.986155,405.69878 562.698211,406.76401 C562.067265,406.920752 561.419566,407 560.769442,407 L108.230558,407 C103.81228,407 100.230558,403.418278 100.230558,399 C100.230558,398.349876 100.309806,397.702177 100.466548,397.071231 L100.98,395 L22,395 C17.581722,395 14,391.418278 14,387 L14.0000718,375.621966 C8.82435371,374.289863 5,369.591544 5,364 L5,268 C5,262.408456 8.82435371,257.710137 14.0000718,256.378034 L14,13 C14,8.581722 17.581722,5 22,5 L646,5 Z M487,363 C479.268014,363 473,369.268014 473,377 C473,384.731986 479.268014,391 487,391 C494.731986,391 501,384.731986 501,377 C501,369.268014 494.731986,363 487,363 Z M173,363 C165.268014,363 159,369.268014 159,377 C159,384.731986 165.268014,391 173,391 C180.731986,391 187,384.731986 187,377 C187,369.268014 180.731986,363 173,363 Z M236,357 C228.268014,357 222,363.268014 222,371 C222,378.731986 228.268014,385 236,385 C243.731986,385 250,378.731986 250,371 C250,363.268014 243.731986,357 236,357 Z M424,357 C416.268014,357 410,363.268014 410,371 C410,378.731986 416.268014,385 424,385 C431.731986,385 438,378.731986 438,371 C438,363.268014 431.731986,357 424,357 Z M197,141 C172.147186,141 152,161.147186 152,186 C152,210.852814 172.147186,231 197,231 C221.852814,231 242,210.852814 242,186 C242,161.147186 221.852814,141 197,141 Z M472,141 C447.147186,141 427,161.147186 427,186 C427,210.852814 447.147186,231 472,231 C496.852814,231 517,210.852814 517,186 C517,161.147186 496.852814,141 472,141 Z M409,144 L260,144 C255.665086,144 252.135457,147.447838 252.003807,151.750821 L252,152 L252,219 C252,223.334914 255.447838,226.864543 259.750821,226.996193 L260,227 L409,227 C413.334914,227 416.864543,223.552162 416.996193,219.249179 L417,219 L417,152 C417,147.581722 413.418278,144 409,144 Z" id="Body-Copy-2" fill="#686868"></path>
                <g id="Window-Copy-2" transform="translate(252.000000, 144.000000)">
                    <rect id="Rectangle" fill-opacity="0.1" fill="#D7FEFF" x="0" y="0" width="165" height="83" rx="8"></rect>
                    <polygon id="Rectangle-Copy-5" fill="#FFFFFF" opacity="0.197172619" points="0 13 165 13 165 26 0 26"></polygon>
                </g>
                <g id="Screws-Copy-2" transform="translate(19.000000, 10.000000)" fill="#343434">
                    <path d="M13.2119457,361.711946 C18.0415633,363.761997 20.2948471,369.33907 18.2447961,374.168688 C16.1947451,378.998305 10.6176718,381.251589 5.78805428,379.201538 C0.958436749,377.151487 -1.29484712,371.574414 0.755203892,366.744796 C2.80525491,361.915179 8.38232819,359.661895 13.2119457,361.711946 Z M622.149658,361.101068 C627.316654,362.012149 630.766754,366.939404 629.855674,372.1064 C628.944593,377.273395 624.017338,380.723496 618.850342,379.812415 C613.683346,378.901335 610.233246,373.97408 611.144326,368.807084 C612.055407,363.640088 616.982662,360.189987 622.149658,361.101068 Z M2.5962136,367.526258 C0.977752273,371.339114 2.75666059,375.742067 6.56951654,377.360528 C10.3823725,378.97899 14.7853251,377.200081 16.4037864,373.387225 C18.0222477,369.574369 16.2433394,365.171417 12.4304835,363.552955 C8.61762752,361.934494 4.21467493,363.713402 2.5962136,367.526258 Z M613.113942,369.15438 C612.394668,373.233588 615.118431,377.123526 619.197639,377.8428 C623.276846,378.562074 627.166784,375.83831 627.886058,371.759103 C628.605332,367.679896 625.881569,363.789958 621.802361,363.070684 C617.723154,362.351409 613.833216,365.075173 613.113942,369.15438 Z M5.28820686,367.582581 L14.4932554,371.489893 C15.0016362,371.705687 15.238824,372.292748 15.0230291,372.801129 C14.8072343,373.309509 14.2201739,373.546697 13.7117931,373.330902 L4.5067446,369.423591 C3.99836381,369.207796 3.76117604,368.620736 3.97697088,368.112355 C4.19276572,367.603974 4.77982607,367.366786 5.28820686,367.582581 Z M615.749609,368.603693 L625.597687,370.340175 C626.141581,370.436078 626.50475,370.954737 626.408847,371.498631 C626.312943,372.042525 625.794285,372.405694 625.250391,372.30979 L615.402313,370.573309 C614.858419,370.477405 614.49525,369.958747 614.591153,369.414853 C614.687057,368.870958 615.205715,368.50779 615.749609,368.603693 Z M320.25,333.272759 C324.79378,335.896111 326.350594,341.70622 323.727241,346.25 C321.103889,350.79378 315.29378,352.350594 310.75,349.727241 C306.20622,347.103889 304.649406,341.29378 307.272759,336.75 C309.896111,332.20622 315.70622,330.649406 320.25,333.272759 Z M309.004809,337.75 C306.933742,341.337195 308.162805,345.924123 311.75,347.995191 C315.337195,350.066258 319.924123,348.837195 321.995191,345.25 C324.066258,341.662805 322.837195,337.075877 319.25,335.004809 C315.662805,332.933742 311.075877,334.162805 309.004809,337.75 Z M318.5,336.303848 C318.978293,336.57999 319.142168,337.19158 318.866025,337.669873 L313.866025,346.330127 C313.589883,346.80842 312.978293,346.972295 312.5,346.696152 C312.021707,346.42001 311.857832,345.80842 312.133975,345.330127 L317.133975,336.669873 C317.410117,336.19158 318.021707,336.027705 318.5,336.303848 Z M624.211946,0.755203892 C629.041563,2.80525491 631.294847,8.38232819 629.244796,13.2119457 C627.194745,18.0415633 621.617672,20.2948471 616.788054,18.2447961 C611.958437,16.1947451 609.705153,10.6176718 611.755204,5.78805428 C613.805255,0.958436749 619.382328,-1.29484712 624.211946,0.755203892 Z M9.5,8.67361738e-19 C14.7467051,8.67361738e-19 19,4.25329488 19,9.5 C19,14.7467051 14.7467051,19 9.5,19 C4.25329488,19 -9.09494702e-13,14.7467051 -9.09494702e-13,9.5 C-9.09494702e-13,4.25329488 4.25329488,8.67361738e-19 9.5,8.67361738e-19 Z M613.596214,6.56951654 C611.977752,10.3823725 613.756661,14.7853251 617.569517,16.4037864 C621.382372,18.0222477 625.785325,16.2433394 627.403786,12.4304835 C629.022248,8.61762752 627.243339,4.21467493 623.430483,2.5962136 C619.617628,0.977752273 615.214675,2.75666059 613.596214,6.56951654 Z M9.5,2 C5.35786438,2 2,5.35786438 2,9.5 C2,13.6421356 5.35786438,17 9.5,17 C13.6421356,17 17,13.6421356 17,9.5 C17,5.35786438 13.6421356,2 9.5,2 Z M616.288207,6.6258395 L625.493255,10.5331508 C626.001636,10.7489456 626.238824,11.336006 626.023029,11.8443868 C625.807234,12.3527676 625.220174,12.5899553 624.711793,12.3741605 L615.506745,8.46684921 C614.998364,8.25105437 614.761176,7.66399402 614.976971,7.15561323 C615.192766,6.64723244 615.779826,6.41004466 616.288207,6.6258395 Z M14.5,8.5 C15.0522847,8.5 15.5,8.94771525 15.5,9.5 C15.5,10.0522847 15.0522847,10.5 14.5,10.5 L4.5,10.5 C3.94771525,10.5 3.5,10.0522847 3.5,9.5 C3.5,8.94771525 3.94771525,8.5 4.5,8.5 L14.5,8.5 Z" id="Combined-Shape"></path>
                </g>
                <g id="HIghlights" transform="translate(48.000000, 10.000000)" fill="#FFFFFF" opacity="0.170247396">
                    <rect id="Rectangle-Copy-22" x="78" y="323" width="416" height="4" rx="2"></rect>
                    <rect id="Rectangle-Copy-23" x="0" y="0" width="573" height="4" rx="2"></rect>
                </g>
                <path d="M647,0 C653.627417,-1.21743675e-15 659,5.372583 659,12 L659.00058,251.608749 C664.328737,254.20545 668,259.67399 668,266 L668,365 C668,371.32601 664.328737,376.79455 659.00058,379.391251 L659,388 C659,394.627417 653.627417,400 647,400 L573.422014,400.000832 C573.009612,404.929731 569.552575,409.288132 564.494974,410.610005 C563.504278,410.868937 562.484515,411 561.460541,411 L107.369317,411 C101.078812,411 95.9188023,406.159775 95.4104292,400.000467 L21,400 C14.372583,400 9,394.627417 9,388 L9.00041542,380.391737 C3.6717203,377.795231 7.7476099e-16,372.326404 0,366 L0,267 C-7.7476099e-16,260.673596 3.6717203,255.204769 9.00041542,252.608263 L9,12 C9,5.372583 14.372583,1.21743675e-15 21,0 L647,0 Z M544.870282,327 L124.129718,327 C120.54186,327 117.404594,329.386451 116.432917,332.818275 L116.365708,333.071231 L100.667,396.261 L100.466548,397.071231 C100.309806,397.702177 100.230558,398.349876 100.230558,399 L100.235837,399.293372 L100.239782,399.387578 L100.239,399.388 L100.253345,399.608379 L100.255,399.633 L100.257,399.657 L100.270593,399.805364 C100.277134,399.870796 100.284463,399.935997 100.292571,400.000955 L100.323885,400.225815 C100.90151,403.982273 104.092144,406.877202 107.981379,406.996193 L108.230558,407 L560.769442,407 C561.419566,407 562.067265,406.920752 562.698211,406.76401 C565.934395,405.960063 568.216266,403.291039 568.683046,400.186752 L568.708817,400.000386 C568.737535,399.772889 568.756518,399.543232 568.765433,399.311967 L568.766343,399.287382 L568.768,399.192 L568.77,398.971 L568.769816,398.851286 L568.767633,398.763921 L568.765,398.725 L568.762,398.648 L568.756365,398.518675 L568.751,398.456 L568.736,398.276 L568.726,398.171 L568.704574,397.977452 C568.683349,397.814337 568.656983,397.650956 568.625367,397.487495 L568.605867,397.3899 L568.533452,397.071231 L568.332,396.261 L552.634292,333.071231 C551.748175,329.504283 548.545648,327 544.870282,327 Z M646,5 L22,5 C17.6650857,5 14.1354571,8.44783777 14.0038068,12.7508207 L14,13 L14,387 C14,391.334914 17.4478378,394.864543 21.7508207,394.996193 L22,395 L95.999,395 L111.727607,332.089572 C113.063108,326.747568 117.862905,323 123.369317,323 L544.733268,323 C550.192005,323 554.962925,326.684237 556.343273,331.965567 L572.818,395 L646,395 C650.334914,395 653.864543,391.552162 653.996193,387.249179 L654,387 L654,13 C654,8.581722 650.418278,5 646,5 Z M173,363 C180.731986,363 187,369.268014 187,377 C187,384.731986 180.731986,391 173,391 C165.268014,391 159,384.731986 159,377 C159,369.268014 165.268014,363 173,363 Z M487,363 C494.731986,363 501,369.268014 501,377 C501,384.731986 494.731986,391 487,391 C479.268014,391 473,384.731986 473,377 C473,369.268014 479.268014,363 487,363 Z M173,367 C167.477153,367 163,371.477153 163,377 C163,382.522847 167.477153,387 173,387 C178.522847,387 183,382.522847 183,377 C183,371.477153 178.522847,367 173,367 Z M487,367 C481.477153,367 477,371.477153 477,377 C477,382.522847 481.477153,387 487,387 C492.522847,387 497,382.522847 497,377 C497,371.477153 492.522847,367 487,367 Z M236,357 C243.731986,357 250,363.268014 250,371 C250,378.731986 243.731986,385 236,385 C228.268014,385 222,378.731986 222,371 C222,363.268014 228.268014,357 236,357 Z M424,357 C431.731986,357 438,363.268014 438,371 C438,378.731986 431.731986,385 424,385 C416.268014,385 410,378.731986 410,371 C410,363.268014 416.268014,357 424,357 Z M236,361 C230.477153,361 226,365.477153 226,371 C226,376.522847 230.477153,381 236,381 C241.522847,381 246,376.522847 246,371 C246,365.477153 241.522847,361 236,361 Z M424,361 C418.477153,361 414,365.477153 414,371 C414,376.522847 418.477153,381 424,381 C429.522847,381 434,376.522847 434,371 C434,365.477153 429.522847,361 424,361 Z M9,259.054 L8.999,259.056 L8.97473686,259.078249 L8.928,259.12 L8.843,259.198 L8.72964408,259.305072 C8.58254131,259.44505 8.43941875,259.588268 8.2999699,259.73501 C8.26063654,259.776397 8.2212849,259.818401 8.18223361,259.860686 C8.1505143,259.895036 8.11935658,259.929168 8.0883942,259.96348 C8.05422393,260.001344 8.02001875,260.039738 7.98605776,260.078351 C7.70640094,260.396291 7.44299727,260.729575 7.19754298,261.07646 C7.1818122,261.09869 7.16591608,261.121318 7.15009632,261.144004 C7.10858416,261.203531 7.06756781,261.263498 7.02708482,261.323853 C7.00142995,261.362101 6.97602872,261.400445 6.95084274,261.438942 C6.90860567,261.5035 6.86689439,261.568617 6.82579887,261.63416 C6.81217352,261.655889 6.79845005,261.677934 6.78479624,261.700026 C6.74270595,261.768134 6.70146061,261.836384 6.66088029,261.905075 C6.64335164,261.934745 6.6259291,261.964528 6.60863161,261.994393 C6.45697699,262.256216 6.31478681,262.524604 6.18271371,262.798784 L6.10828534,262.956219 C6.03205413,263.120566 5.95950888,263.286744 5.89066747,263.45483 L5.84228137,263.574825 L5.79080108,263.7068 L5.73635521,263.851676 L5.72807115,263.874232 C5.65521533,264.073223 5.58747859,264.274682 5.52502039,264.478449 L5.50567665,264.542193 L5.44560921,264.748911 C5.43257777,264.795325 5.41992144,264.841469 5.40753457,264.887723 C5.39245587,264.944011 5.37753984,265.001399 5.36303957,265.058952 C5.34514976,265.129967 5.32796198,265.200936 5.31140821,265.272149 C5.25561087,265.512173 5.20699696,265.755074 5.16583279,266.000501 C5.14535552,266.122566 5.12666875,266.245639 5.10986614,266.369312 C5.08597737,266.545154 5.06590863,266.722086 5.04972945,266.900142 L5.04104884,267.000302 C5.02292283,267.220107 5.0107209,267.441543 5.00460029,267.664481 L5,268 L5,364 C5,364.225367 5.00621264,364.449283 5.018476,364.671587 L5.02658361,364.805148 C5.03088072,364.870059 5.03574117,364.9354 5.04112276,365.000594 L5.05371237,365.142837 C5.06050646,365.214747 5.067928,365.286408 5.07597734,365.35788 L5.09105124,365.485579 C5.09693938,365.533271 5.10311912,365.580963 5.10957802,365.628566 C5.13664721,365.828012 5.16853036,366.025441 5.20516646,366.221197 C5.23933072,366.403811 5.27781197,366.585734 5.32036249,366.766086 C5.33111367,366.811658 5.34216864,366.857307 5.35348378,366.902853 C5.37101439,366.973411 5.38909274,367.043435 5.40778428,367.113209 C5.41881944,367.154405 5.43012922,367.195732 5.44165376,367.236969 C5.52586887,367.538291 5.62149265,367.83467 5.72807115,368.125768 L5.74865467,368.181557 C5.7608947,368.214478 5.77327508,368.247331 5.78579509,368.280115 L5.85540341,368.458091 C5.86688887,368.486777 5.87849154,368.515432 5.89020144,368.544032 C5.92205157,368.621819 5.95463514,368.699059 5.98799907,368.775882 C6.0001458,368.803852 6.01241673,368.831812 6.02479096,368.859717 L6.1324793,369.095612 L6.15411112,369.141415 C6.22244593,369.285309 6.29351092,369.427534 6.36728225,369.568117 C6.41336324,369.655934 6.46059497,369.743281 6.50886992,369.829967 C6.54232745,369.890043 6.57618911,369.949635 6.61054341,370.008906 L6.67232743,370.114261 C6.70784711,370.174133 6.74411207,370.234059 6.7808835,370.293638 C6.79908697,370.323132 6.81735261,370.352443 6.83574082,370.381669 C6.87603346,370.445707 6.91680477,370.50917 6.95815388,370.57222 C6.97967692,370.605038 7.00131034,370.637676 7.0230986,370.670201 C7.04549256,370.70363 7.06806945,370.736969 7.09080903,370.770188 C7.12686548,370.82286 7.16329658,370.875181 7.20013138,370.927197 C7.31576871,371.09048 7.43515472,371.250455 7.55836386,371.407283 C7.59283582,371.451156 7.62716041,371.494231 7.66177369,371.537062 L7.78172085,371.683131 C7.80576234,371.711947 7.8301959,371.740953 7.85476392,371.769842 C7.88492754,371.805307 7.91493234,371.840179 7.9451333,371.874876 C7.99255108,371.929351 8.04032857,371.983257 8.08858047,372.036726 C8.1211939,372.072868 8.15421283,372.109014 8.1874489,372.144957 C8.22369615,372.184156 8.26016809,372.223077 8.29689512,372.261754 C8.51519555,372.491628 8.74224585,372.712626 8.97772385,372.924439 L9.00009149,372.944508 L9,259.054 Z M659.000915,259.056393 L659.000915,372.943607 L659.025737,372.921325 L659.108646,372.84599 L659.145,372.811 L659.194974,372.766037 C659.259008,372.70615 659.322386,372.645569 659.385094,372.584307 C659.571324,372.402388 659.752006,372.214072 659.926452,372.020037 C659.95708,371.985968 659.987292,371.951978 660.017312,371.917816 C660.298669,371.597651 660.56333,371.262256 660.809823,370.913118 C660.823713,370.893444 660.837458,370.873851 660.851145,370.854216 C660.904868,370.777148 660.957755,370.699353 661.009744,370.620912 C661.028199,370.593067 661.046528,370.56516 661.064743,370.537173 C661.092698,370.494217 661.120089,370.451539 661.147216,370.408677 C661.175934,370.363304 661.204469,370.31754 661.232703,370.271572 C661.397684,370.002985 661.552593,369.727 661.696645,369.444553 C661.728684,369.381739 661.760394,369.318179 661.791553,369.254301 C661.804158,369.228461 661.81657,369.202782 661.828893,369.177052 L661.894406,369.037975 C661.930068,368.960992 661.965079,368.883245 661.999282,368.805062 C662.00375,368.794847 662.007956,368.785198 662.012148,368.775543 C662.045373,368.699043 662.078009,368.621675 662.109853,368.543899 C662.125679,368.505243 662.141283,368.466554 662.15669,368.427767 C662.275116,368.129618 662.381922,367.825648 662.476568,367.516365 C662.488912,367.47603 662.501093,367.435453 662.513065,367.394787 C662.534832,367.32085 662.555913,367.246591 662.576293,367.172043 C662.583634,367.145191 662.590819,367.11854 662.597916,367.091852 C662.614495,367.029504 662.630616,366.966829 662.646241,366.903959 C662.683568,366.753757 662.718003,366.602732 662.74956,366.450652 C662.794224,366.235379 662.833069,366.018333 662.865997,365.79935 C662.874449,365.743162 662.882595,365.686228 662.890341,365.629166 C662.914588,365.450444 662.934837,365.271184 662.951093,365.090774 L662.959696,364.990622 C662.977495,364.772777 662.989475,364.553345 662.995484,364.332442 L663,364 L663,268 C663,267.772955 662.993695,267.547384 662.981249,267.32345 C662.978849,267.280289 662.976248,267.237594 662.973424,267.194961 C662.968367,267.11857 662.962551,267.04186 662.956018,266.965356 L662.946302,266.857317 C662.938332,266.772951 662.929505,266.688984 662.919816,266.605279 C662.916259,266.574543 662.912551,266.543558 662.908725,266.512611 C662.882188,266.297952 662.849982,266.085049 662.812261,265.874057 C662.804813,265.832392 662.797127,265.790684 662.789227,265.749053 C662.755178,265.569634 662.717124,265.391583 662.675169,265.215043 C662.664882,265.171747 662.654241,265.128065 662.643361,265.084478 C662.624037,265.007065 662.604071,264.930358 662.583369,264.853954 L662.569123,264.801843 L662.554526,264.749393 C662.535024,264.679937 662.514997,264.611014 662.494371,264.542351 C662.463336,264.439039 662.430954,264.336334 662.397238,264.234235 C662.357409,264.113615 662.315632,263.993606 662.27202,263.874481 L662.251544,263.818977 C662.198529,263.676366 662.142881,263.535037 662.084658,263.395047 C662.058246,263.331539 662.031217,263.268107 662.00366,263.204958 L661.971016,263.130839 C661.942288,263.066204 661.912966,263.001787 661.883095,262.937678 C661.807504,262.775444 661.72834,262.615079 661.645748,262.456786 C661.562792,262.297777 661.476119,262.140413 661.386068,261.985252 C661.36146,261.942849 661.33647,261.900393 661.311227,261.858105 C661.274511,261.796599 661.237367,261.735622 661.199698,261.675006 L661.145791,261.589071 L661.061118,261.45726 C661.032061,261.412671 661.002812,261.36843 660.973279,261.324395 C660.932546,261.263662 660.891391,261.203492 660.849705,261.143719 C660.741389,260.988384 660.629053,260.83516 660.51323,260.684759 C660.417752,260.560773 660.319758,260.438529 660.219455,260.318279 L660.139115,260.222966 C660.092873,260.168676 660.045984,260.114607 659.998622,260.060965 C659.978261,260.037903 659.957536,260.014611 659.936721,259.9914 C659.86586,259.912389 659.794406,259.834786 659.721952,259.758139 L659.722231,259.758435 C659.49821,259.521447 659.264938,259.293859 659.02275,259.075988 L659.000915,259.056393 Z M522,125 C526.334914,125 529.864543,128.447838 529.996193,132.750821 L530,133 L530,239 C530,243.334914 526.552162,246.864543 522.249179,246.996193 L522,247 L146,247 C141.665086,247 138.135457,243.552162 138.003807,239.249179 L138,239 L138,133 C138,128.665086 141.447838,125.135457 145.750821,125.003807 L146,125 L522,125 Z M522,129 L146,129 C143.857805,129 142.108921,130.683968 142.004895,132.80036 L142,133 L142,239 C142,241.142195 143.683968,242.891079 145.80036,242.995105 L146,243 L522,243 C524.142195,243 525.891079,241.316032 525.995105,239.19964 L526,239 L526,133 C526,130.790861 524.209139,129 522,129 Z M472,141 C496.852814,141 517,161.147186 517,186 C517,210.852814 496.852814,231 472,231 C447.147186,231 427,210.852814 427,186 C427,161.147186 447.147186,141 472,141 Z M197,141 C221.852814,141 242,161.147186 242,186 C242,210.852814 221.852814,231 197,231 C172.147186,231 152,210.852814 152,186 C152,161.147186 172.147186,141 197,141 Z M409,144 C413.418278,144 417,147.581722 417,152 L417,219 C417,223.418278 413.418278,227 409,227 L260,227 C255.581722,227 252,223.418278 252,219 L252,152 C252,147.581722 255.581722,144 260,144 L409,144 Z M409,148 L260,148 C257.857805,148 256.108921,149.683968 256.004895,151.80036 L256,152 L256,219 C256,221.142195 257.683968,222.891079 259.80036,222.995105 L260,223 L409,223 C411.142195,223 412.891079,221.316032 412.995105,219.19964 L413,219 L413,152 C413,149.857805 411.316032,148.108921 409.19964,148.004895 L409,148 Z M472,151 C452.670034,151 437,166.670034 437,186 C437,205.329966 452.670034,221 472,221 C491.329966,221 507,205.329966 507,186 C507,166.670034 491.329966,151 472,151 Z M197,151 C177.670034,151 162,166.670034 162,186 C162,205.329966 177.670034,221 197,221 C216.329966,221 232,205.329966 232,186 C232,166.670034 216.329966,151 197,151 Z" id="Outline-Copy-2" fill="#4B4B4B"></path>
            </g>
            <g id="Label" transform="translate(40.000000, 33.000000)">
                <g id="Group-3">
                    <mask id="mask-2" fill="white">
                        <use xlink:href="#path-1"></use>
                    </mask>
                    <use id="Combined-Shape-Copy-5" fill="#FFEB2B" xlink:href="#path-1"></use>
                    <g id="Group-2" opacity="0.738513765" mask="url(#mask-2)">
                        <g transform="translate(512.500000, 192.000000) rotate(135.000000) translate(-512.500000, -192.000000) translate(187.000000, 129.000000)">
                            <rect id="Rectangle" fill="#622C8D" x="1.39293009" y="104.549733" width="649" height="21"></rect>
                            <rect id="Rectangle-Copy-28" fill="#0084C7" x="1.37330618" y="83.9584821" width="649" height="21"></rect>
                            <rect id="Rectangle-Copy-29" fill="#62AD44" x="1.35368227" y="63.3672312" width="649" height="21"></rect>
                            <rect id="Rectangle-Copy-30" fill="#F4A919" x="0.896748514" y="42.0335754" width="649" height="22"></rect>
                            <rect id="Rectangle-Copy-31" fill="#EB6C20" x="0.439814753" y="21.6999197" width="649" height="21"></rect>
                            <rect id="Rectangle-Copy-32" fill="#E41C23" x="1.77962017" y="0.718858655" width="649" height="21"></rect>
                        </g>
                    </g>
                    <rect id="Rectangle-Copy-24" fill="#F9F6DD" mask="url(#mask-2)" x="0" y="0" width="588" height="75"></rect>
                </g>
                <rect id="Rectangle" fill-opacity="0.333069274" fill="#3EB8BD" x="52" y="224" width="106" height="16"></rect>
                <path d="M18.32,240 L19.22,237.38 L24.82,237.38 L25.72,240 L29.9,240 L24.16,224.92 L19.88,224.92 L14.14,240 L18.32,240 Z M23.78,234.4 L20.26,234.4 L22.02,229.38 L23.78,234.4 Z M37.92,240 C38.72,240 39.44,239.906667 40.08,239.72 C40.72,239.533333 41.2633333,239.253333 41.71,238.88 C42.1566667,238.506667 42.5033333,238.046667 42.75,237.5 C42.9966667,236.953333 43.12,236.326667 43.12,235.62 C43.12,235.166667 43.0666667,234.74 42.96,234.34 C42.8533333,233.94 42.6766667,233.58 42.43,233.26 C42.1833333,232.94 41.8633333,232.67 41.47,232.45 C41.0766667,232.23 40.6,232.066667 40.04,231.96 C40.6,231.613333 41.0166667,231.19 41.29,230.69 C41.5633333,230.19 41.7,229.56 41.7,228.8 C41.7,227.546667 41.34,226.586667 40.62,225.92 C39.9,225.253333 38.8466667,224.92 37.46,224.92 L37.46,224.92 L31.62,224.92 L31.62,240 L37.92,240 Z M36.26,230.84 L35.54,230.84 L35.54,227.92 L36.26,227.92 C37.4866667,227.92 38.1,228.406667 38.1,229.38 C38.1,230.353333 37.4866667,230.84 36.26,230.84 L36.26,230.84 Z M36.4,236.96 L35.54,236.96 L35.54,233.76 L36.4,233.76 C37.3866667,233.76 38.0933333,233.886667 38.52,234.14 C38.9466667,234.393333 39.16,234.8 39.16,235.36 C39.16,235.92 38.9466667,236.326667 38.52,236.58 C38.0933333,236.833333 37.3866667,236.96 36.4,236.96 L36.4,236.96 Z" id="AB" fill-opacity="0.6" fill="#000000" fill-rule="nonzero"></path>
                <rect id="Rectangle" fill-opacity="0.51" fill="#626262" x="17" y="62" width="545" height="1"></rect>
            </g>
        </g>
    </g>
</svg>