<?xml version="1.0" encoding="UTF-8"?>
<svg width="78px" height="78px" viewBox="0 0 78 78" version="1.1" xmlns="http://www.w3.org/2000/svg" xmlns:xlink="http://www.w3.org/1999/xlink">
    <title>ReelA</title>
    <g id="Page-1" stroke="none" stroke-width="1" fill="none" fill-rule="evenodd">
        <g id="Artboard" transform="translate(-159.000000, -148.000000)" fill="#777" stroke="#222">
            <path d="M198,148.5 C208.631481,148.5 218.256481,152.809259 225.223611,159.776389 C232.190741,166.743519 236.5,176.368519 236.5,187 C236.5,197.631481 232.190741,207.256481 225.223611,214.223611 C218.256481,221.190741 208.631481,225.5 198,225.5 C187.368519,225.5 177.743519,221.190741 170.776389,214.223611 C163.809259,207.256481 159.5,197.631481 159.5,187 C159.5,176.368519 163.809259,166.743519 170.776389,159.776389 C177.743519,152.809259 187.368519,148.5 198,148.5 Z M203.658537,156.060976 L192.341463,156.060976 L192.194287,156.068078 C191.855294,156.101068 191.548927,156.247924 191.310641,156.486209 C191.060068,156.736783 190.881864,157.09341 190.841465,157.536621 L190.841465,157.536621 L190.841153,162.646535 L190.317636,162.813802 C186.496217,164.079782 183.067752,166.208174 180.263066,168.968553 L180.263066,168.968553 L175.672388,166.318791 L175.541394,166.251362 C175.231353,166.110455 174.892604,166.084452 174.5671,166.17167 C174.224806,166.263388 173.89216,166.483138 173.635566,166.846779 L173.635566,166.846779 L167.96486,176.668729 L167.897423,176.799739 C167.756497,177.109811 167.730494,177.44856 167.817712,177.774064 C167.909431,178.116362 168.129185,178.449012 168.492833,178.705607 L168.492833,178.705607 L173.212451,181.430134 L173.065351,182.082362 C172.694921,183.829843 172.5,185.64216 172.5,187.5 C172.5,189.574596 172.743057,191.592427 173.202142,193.5266 L173.202142,193.5266 L168.513892,196.233456 L168.389986,196.313194 C168.11291,196.511259 167.921016,196.791622 167.833797,197.117126 C167.74208,197.459421 167.766066,197.857376 167.952691,198.261413 L167.952691,198.261413 L173.623397,208.083363 L173.703136,208.207271 C173.901203,208.484352 174.181567,208.676246 174.507071,208.763465 C174.849373,208.855184 175.247338,208.831195 175.651384,208.644558 L175.651384,208.644558 L180.231019,205.999852 L180.601816,206.358892 C183.471752,209.083492 186.963095,211.159777 190.841153,212.353465 L190.841153,212.353465 L190.841463,217.390275 L190.848566,217.537441 C190.881556,217.876414 191.028412,218.182781 191.266697,218.421066 C191.517274,218.671643 191.873906,218.849848 192.317125,218.890244 L192.317125,218.890244 L203.658537,218.890244 L203.805713,218.883142 C204.144706,218.850151 204.451073,218.703296 204.689359,218.465011 C204.939931,218.214438 205.118134,217.857814 205.158534,217.414605 L205.158534,217.414605 L205.158951,212.639308 L205.67005,212.498647 C209.741968,211.332878 213.405118,209.199273 216.394454,206.362433 L216.394454,206.362433 L220.327632,208.63244 L220.45862,208.699865 C220.768647,208.840765 221.107396,208.866768 221.4329,208.779549 C221.775194,208.687832 222.10784,208.468082 222.364434,208.104441 L222.364434,208.104441 L228.03514,198.28249 L228.102577,198.15148 C228.243503,197.841409 228.269506,197.502659 228.182288,197.177156 C228.090572,196.834869 227.87083,196.50223 227.507204,196.245639 L227.507204,196.245639 L223.672706,194.031216 L223.813677,193.459561 C224.262527,191.545817 224.5,189.550639 224.5,187.5 C224.5,185.228721 224.208676,183.025481 223.661485,180.925568 L223.661485,180.925568 L227.486072,178.717784 L227.60999,178.638039 C227.88709,178.439961 228.078984,178.159597 228.166203,177.834093 C228.25792,177.491799 228.233934,177.093844 228.047309,176.689807 L228.047309,176.689807 L222.376603,166.867856 L222.296864,166.743948 C222.098797,166.466867 221.818433,166.274973 221.492929,166.187755 C221.150659,166.096044 220.752736,166.12002 220.348728,166.306609 L220.348728,166.306609 L216.36177,168.606603 L215.985337,168.257538 C212.946341,165.49445 209.25012,163.441557 205.158951,162.360692 L205.158951,162.360692 L205.158537,157.560932 L205.150792,157.40758 C205.114945,157.05463 204.956713,156.737831 204.719197,156.500315 C204.44775,156.228869 204.07275,156.060976 203.658537,156.060976 L203.658537,156.060976 Z" id="ReelA"></path>
        </g>
    </g>
</svg>