<?xml version="1.0" encoding="UTF-8"?>
<svg width="670px" height="420px" viewBox="0 0 670 420" version="1.1" xmlns="http://www.w3.org/2000/svg" xmlns:xlink="http://www.w3.org/1999/xlink">
    <title>Spools</title>
    <g id="Spools" transform="translate(55.000000, 44.000000)">
        <g id="Spool-A">
            <path d="M143,0 C221.976719,0 286,64.0232808 286,143 C286,221.976719 221.976719,286 143,286 C64.0232808,286 0,221.976719 0,143 C0,64.0232808 64.0232808,0 143,0 Z M143.5,5 C67.0085622,5 5,67.0085622 5,143.5 C5,219.991438 67.0085622,282 143.5,282 C219.991438,282 282,219.991438 282,143.5 C282,67.0085622 219.991438,5 143.5,5 Z" id="Combined-Shape" fill="#3E3D3E"></path>
            <path d="M143,3 C220.319865,3 283,65.680135 283,143 C283,220.319865 220.319865,283 143,283 C65.680135,283 3,220.319865 3,143 C3,65.680135 65.680135,3 143,3 Z M143.5,94 C116.161905,94 94,116.161905 94,143.5 C94,170.838095 116.161905,193 143.5,193 C170.838095,193 193,170.838095 193,143.5 C193,116.161905 170.838095,94 143.5,94 Z" id="Combined-Shape" fill="#6C6C6C"></path>
            <path d="M143,73 C181.659932,73 213,104.340068 213,143 C213,181.659932 181.659932,213 143,213 C104.340068,213 73,181.659932 73,143 C73,104.340068 104.340068,73 143,73 Z M143,78 C107.101491,78 78,107.101491 78,143 C78,178.898509 107.101491,208 143,208 C178.898509,208 208,178.898509 208,143 C208,107.101491 178.898509,78 143,78 Z" id="Combined-Shape" fill="#3E3D3E"></path>
            <path d="M143,76 C180.003078,76 210,105.996922 210,143 C210,180.003078 180.003078,210 143,210 C105.996922,210 76,180.003078 76,143 C76,105.996922 105.996922,76 143,76 Z M143,99.7076923 C119.090319,99.7076923 99.7076923,119.090319 99.7076923,143 C99.7076923,150.431145 101.579997,157.42499 104.878606,163.535535 C112.12623,177.477525 126.701069,187 143.5,187 C167.524387,187 187,167.524387 187,143.5 C187,126.701069 177.477525,112.12623 163.535932,104.878842 C157.42499,101.579997 150.431145,99.7076923 143,99.7076923 Z" id="Combined-Shape" fill="#B5B5B5"></path>
        </g>
        <g id="spool-B" transform="translate(312.000000, 37.000000)">
            <path d="M106,0 C164.542183,0 212,47.4578165 212,106 C212,164.542183 164.542183,212 106,212 C47.4578165,212 0,164.542183 0,106 C0,47.4578165 47.4578165,0 106,0 Z M106.5,4 C49.8908131,4 4,49.8908131 4,106.5 C4,163.109187 49.8908131,209 106.5,209 C163.109187,209 209,163.109187 209,106.5 C209,49.8908131 163.109187,4 106.5,4 Z" id="Combined-Shape" fill="#3E3D3E"></path>
            <path d="M106,3 C162.885329,3 209,49.1146708 209,106 C209,162.885329 162.885329,209 106,209 C49.1146708,209 3,162.885329 3,106 C3,49.1146708 49.1146708,3 106,3 Z M107,71 C87.117749,71 71,87.117749 71,107 C71,126.882251 87.117749,143 107,143 C126.882251,143 143,126.882251 143,107 C143,87.117749 126.882251,71 107,71 Z" id="Combined-Shape" fill="#6C6C6C"></path>
            <path d="M106,36 C144.659932,36 176,67.3400675 176,106 C176,144.659932 144.659932,176 106,176 C67.3400675,176 36,144.659932 36,106 C36,67.3400675 67.3400675,36 106,36 Z M106,41 C70.1014913,41 41,70.1014913 41,106 C41,141.898509 70.1014913,171 106,171 C141.898509,171 171,141.898509 171,106 C171,70.1014913 141.898509,41 106,41 Z" id="Combined-Shape" fill="#3E3D3E"></path>
            <path d="M106,39 C143.003078,39 173,68.9969218 173,106 C173,143.003078 143.003078,173 106,173 C68.9969218,173 39,143.003078 39,106 C39,68.9969218 68.9969218,39 106,39 Z M106,62.7076923 C82.0903187,62.7076923 62.7076923,82.0903187 62.7076923,106 C62.7076923,113.431145 64.5799971,120.42499 67.8786063,126.535535 C75.1262304,140.477525 89.7010686,150 106.5,150 C130.524387,150 150,130.524387 150,106.5 C150,89.7010686 140.477525,75.1262304 126.535932,67.8788421 C120.42499,64.5799971 113.431145,62.7076923 106,62.7076923 Z" id="Combined-Shape" fill="#B5B5B5"></path>
        </g>
    </g>
</svg> 